<svg xmlns="http://www.w3.org/2000/svg" viewBox="0 0 640 180" role="img" aria-label="Elevation chart, max 30 · min 29 m" data-range="max 30 · min 29 m">
  <defs>
    <linearGradient id="altitude-fill" x1="0" x2="0" y1="0" y2="1">
      <stop offset="0%" stop-color="#845ef7" stop-opacity="0.28" />
      <stop offset="100%" stop-color="#845ef7" stop-opacity="0.02" />
    </linearGradient>
  </defs>
  <rect x="0" y="0" width="640" height="180" rx="6" fill="#fbfbfb" fill-opacity="1" />

  <line x1="46" y1="16.0" x2="624" y2="16.0" stroke="#e5e9ef" stroke-width="1" />
  <text x="38" y="21.0" text-anchor="end" fill="#5a6472" font-size="15" font-family="inherit">31</text>
  <line x1="46" y1="59.3" x2="624" y2="59.3" stroke="#e5e9ef" stroke-width="1" />
  <text x="38" y="64.3" text-anchor="end" fill="#5a6472" font-size="15" font-family="inherit">30</text>
  <line x1="46" y1="102.7" x2="624" y2="102.7" stroke="#e5e9ef" stroke-width="1" />
  <text x="38" y="107.7" text-anchor="end" fill="#5a6472" font-size="15" font-family="inherit">29</text>
  <line x1="46" y1="146.0" x2="624" y2="146.0" stroke="#e5e9ef" stroke-width="1" />
  <text x="38" y="151.0" text-anchor="end" fill="#5a6472" font-size="15" font-family="inherit">28</text>
  <polygon points="46,146 46.0,67.2 49.4,71.8 52.7,71.8 56.1,71.3 59.4,70.4 62.8,69.0 66.1,68.6 69.5,68.6 72.8,68.6 76.2,68.6 79.5,69.0 82.9,69.5 86.2,69.9 89.6,70.9 92.9,72.2 96.3,73.2 99.6,74.1 103.0,75.5 106.3,76.4 109.7,77.3 113.0,78.7 116.4,79.6 119.7,80.1 123.1,80.5 126.5,81.0 129.8,81.5 133.2,81.9 136.5,81.9 139.9,82.8 143.2,83.3 146.6,83.8 149.9,84.2 153.3,84.2 156.6,83.3 160.0,82.4 163.3,81.0 166.7,79.6 170.0,77.8 173.4,76.4 176.7,74.5 180.1,73.2 183.4,71.8 186.8,69.9 190.1,68.1 193.5,66.2 196.8,64.4 200.2,63.0 203.5,62.1 206.9,62.1 210.3,63.0 213.6,63.9 217.0,65.8 220.3,68.1 223.7,70.4 227.0,72.7 230.4,74.5 233.7,76.9 237.1,78.2 240.4,80.1 243.8,81.9 247.1,83.8 250.5,85.6 253.8,87.0 257.2,87.9 260.5,88.4 263.9,88.8 267.2,89.8 270.6,90.2 273.9,90.7 277.3,91.1 280.6,91.6 284.0,92.1 287.4,92.5 290.7,93.0 294.1,93.4 297.4,93.9 300.8,94.8 304.1,95.3 307.5,96.2 310.8,96.7 314.2,97.6 317.5,98.5 320.9,98.5 324.2,99.0 327.6,99.4 330.9,99.9 334.3,99.9 337.6,99.4 341.0,99.4 344.3,99.4 347.7,99.0 351.0,98.5 354.4,98.1 357.7,98.1 361.1,98.1 364.5,98.1 367.8,98.5 371.2,99.4 374.5,99.9 377.9,99.4 381.2,99.0 384.6,98.5 387.9,98.5 391.3,98.5 394.6,98.1 398.0,97.6 401.3,97.6 404.7,98.1 408.0,99.0 411.4,98.5 414.7,99.0 418.1,99.4 421.4,99.4 424.8,99.4 428.1,99.4 431.5,99.9 434.8,99.4 438.2,99.4 441.5,99.0 444.9,98.5 448.3,98.1 451.6,97.6 455.0,97.1 458.3,97.1 461.7,97.1 465.0,96.7 468.4,96.2 471.7,96.2 475.1,96.2 478.4,95.8 481.8,95.8 485.1,95.3 488.5,95.3 491.8,94.8 495.2,93.9 498.5,92.5 501.9,91.6 505.2,90.2 508.6,89.3 511.9,88.4 515.3,87.5 518.6,87.0 522.0,86.5 525.4,85.6 528.7,84.2 532.1,82.8 535.4,81.9 538.8,80.5 542.1,79.6 545.5,79.2 548.8,78.2 552.2,77.8 555.5,76.4 558.9,75.5 562.2,74.5 565.6,73.6 568.9,73.2 572.3,72.2 575.6,70.9 579.0,70.4 582.3,70.4 585.7,70.4 589.0,70.9 592.4,70.9 595.7,71.3 599.1,72.2 602.5,73.6 605.8,76.4 609.2,77.8 612.5,76.9 615.9,75.9 619.2,75.9 622.6,82.4 624.0,87.0 624,146" fill="url(#altitude-fill)" />
  <line x1="46" y1="16" x2="46" y2="146" stroke="#94a0ad" stroke-width="1.5" />
  <line x1="46" y1="146" x2="624" y2="146" stroke="#94a0ad" stroke-width="1.5" />
  <circle cx="46.0" cy="67.2" r="2" fill="#845ef7" />
  <circle cx="49.4" cy="71.8" r="2" fill="#845ef7" />
  <circle cx="52.7" cy="71.8" r="2" fill="#845ef7" />
  <circle cx="56.1" cy="71.3" r="2" fill="#845ef7" />
  <circle cx="59.4" cy="70.4" r="2" fill="#845ef7" />
  <circle cx="62.8" cy="69.0" r="2" fill="#845ef7" />
  <circle cx="66.1" cy="68.6" r="2" fill="#845ef7" />
  <circle cx="69.5" cy="68.6" r="2" fill="#845ef7" />
  <circle cx="72.8" cy="68.6" r="2" fill="#845ef7" />
  <circle cx="76.2" cy="68.6" r="2" fill="#845ef7" />
  <circle cx="79.5" cy="69.0" r="2" fill="#845ef7" />
  <circle cx="82.9" cy="69.5" r="2" fill="#845ef7" />
  <circle cx="86.2" cy="69.9" r="2" fill="#845ef7" />
  <circle cx="89.6" cy="70.9" r="2" fill="#845ef7" />
  <circle cx="92.9" cy="72.2" r="2" fill="#845ef7" />
  <circle cx="96.3" cy="73.2" r="2" fill="#845ef7" />
  <circle cx="99.6" cy="74.1" r="2" fill="#845ef7" />
  <circle cx="103.0" cy="75.5" r="2" fill="#845ef7" />
  <circle cx="106.3" cy="76.4" r="2" fill="#845ef7" />
  <circle cx="109.7" cy="77.3" r="2" fill="#845ef7" />
  <circle cx="113.0" cy="78.7" r="2" fill="#845ef7" />
  <circle cx="116.4" cy="79.6" r="2" fill="#845ef7" />
  <circle cx="119.7" cy="80.1" r="2" fill="#845ef7" />
  <circle cx="123.1" cy="80.5" r="2" fill="#845ef7" />
  <circle cx="126.5" cy="81.0" r="2" fill="#845ef7" />
  <circle cx="129.8" cy="81.5" r="2" fill="#845ef7" />
  <circle cx="133.2" cy="81.9" r="2" fill="#845ef7" />
  <circle cx="136.5" cy="81.9" r="2" fill="#845ef7" />
  <circle cx="139.9" cy="82.8" r="2" fill="#845ef7" />
  <circle cx="143.2" cy="83.3" r="2" fill="#845ef7" />
  <circle cx="146.6" cy="83.8" r="2" fill="#845ef7" />
  <circle cx="149.9" cy="84.2" r="2" fill="#845ef7" />
  <circle cx="153.3" cy="84.2" r="2" fill="#845ef7" />
  <circle cx="156.6" cy="83.3" r="2" fill="#845ef7" />
  <circle cx="160.0" cy="82.4" r="2" fill="#845ef7" />
  <circle cx="163.3" cy="81.0" r="2" fill="#845ef7" />
  <circle cx="166.7" cy="79.6" r="2" fill="#845ef7" />
  <circle cx="170.0" cy="77.8" r="2" fill="#845ef7" />
  <circle cx="173.4" cy="76.4" r="2" fill="#845ef7" />
  <circle cx="176.7" cy="74.5" r="2" fill="#845ef7" />
  <circle cx="180.1" cy="73.2" r="2" fill="#845ef7" />
  <circle cx="183.4" cy="71.8" r="2" fill="#845ef7" />
  <circle cx="186.8" cy="69.9" r="2" fill="#845ef7" />
  <circle cx="190.1" cy="68.1" r="2" fill="#845ef7" />
  <circle cx="193.5" cy="66.2" r="2" fill="#845ef7" />
  <circle cx="196.8" cy="64.4" r="2" fill="#845ef7" />
  <circle cx="200.2" cy="63.0" r="2" fill="#845ef7" />
  <circle cx="203.5" cy="62.1" r="2" fill="#845ef7" />
  <circle cx="206.9" cy="62.1" r="2" fill="#845ef7" />
  <circle cx="210.3" cy="63.0" r="2" fill="#845ef7" />
  <circle cx="213.6" cy="63.9" r="2" fill="#845ef7" />
  <circle cx="217.0" cy="65.8" r="2" fill="#845ef7" />
  <circle cx="220.3" cy="68.1" r="2" fill="#845ef7" />
  <circle cx="223.7" cy="70.4" r="2" fill="#845ef7" />
  <circle cx="227.0" cy="72.7" r="2" fill="#845ef7" />
  <circle cx="230.4" cy="74.5" r="2" fill="#845ef7" />
  <circle cx="233.7" cy="76.9" r="2" fill="#845ef7" />
  <circle cx="237.1" cy="78.2" r="2" fill="#845ef7" />
  <circle cx="240.4" cy="80.1" r="2" fill="#845ef7" />
  <circle cx="243.8" cy="81.9" r="2" fill="#845ef7" />
  <circle cx="247.1" cy="83.8" r="2" fill="#845ef7" />
  <circle cx="250.5" cy="85.6" r="2" fill="#845ef7" />
  <circle cx="253.8" cy="87.0" r="2" fill="#845ef7" />
  <circle cx="257.2" cy="87.9" r="2" fill="#845ef7" />
  <circle cx="260.5" cy="88.4" r="2" fill="#845ef7" />
  <circle cx="263.9" cy="88.8" r="2" fill="#845ef7" />
  <circle cx="267.2" cy="89.8" r="2" fill="#845ef7" />
  <circle cx="270.6" cy="90.2" r="2" fill="#845ef7" />
  <circle cx="273.9" cy="90.7" r="2" fill="#845ef7" />
  <circle cx="277.3" cy="91.1" r="2" fill="#845ef7" />
  <circle cx="280.6" cy="91.6" r="2" fill="#845ef7" />
  <circle cx="284.0" cy="92.1" r="2" fill="#845ef7" />
  <circle cx="287.4" cy="92.5" r="2" fill="#845ef7" />
  <circle cx="290.7" cy="93.0" r="2" fill="#845ef7" />
  <circle cx="294.1" cy="93.4" r="2" fill="#845ef7" />
  <circle cx="297.4" cy="93.9" r="2" fill="#845ef7" />
  <circle cx="300.8" cy="94.8" r="2" fill="#845ef7" />
  <circle cx="304.1" cy="95.3" r="2" fill="#845ef7" />
  <circle cx="307.5" cy="96.2" r="2" fill="#845ef7" />
  <circle cx="310.8" cy="96.7" r="2" fill="#845ef7" />
  <circle cx="314.2" cy="97.6" r="2" fill="#845ef7" />
  <circle cx="317.5" cy="98.5" r="2" fill="#845ef7" />
  <circle cx="320.9" cy="98.5" r="2" fill="#845ef7" />
  <circle cx="324.2" cy="99.0" r="2" fill="#845ef7" />
  <circle cx="327.6" cy="99.4" r="2" fill="#845ef7" />
  <circle cx="330.9" cy="99.9" r="2" fill="#845ef7" />
  <circle cx="334.3" cy="99.9" r="2" fill="#845ef7" />
  <circle cx="337.6" cy="99.4" r="2" fill="#845ef7" />
  <circle cx="341.0" cy="99.4" r="2" fill="#845ef7" />
  <circle cx="344.3" cy="99.4" r="2" fill="#845ef7" />
  <circle cx="347.7" cy="99.0" r="2" fill="#845ef7" />
  <circle cx="351.0" cy="98.5" r="2" fill="#845ef7" />
  <circle cx="354.4" cy="98.1" r="2" fill="#845ef7" />
  <circle cx="357.7" cy="98.1" r="2" fill="#845ef7" />
  <circle cx="361.1" cy="98.1" r="2" fill="#845ef7" />
  <circle cx="364.5" cy="98.1" r="2" fill="#845ef7" />
  <circle cx="367.8" cy="98.5" r="2" fill="#845ef7" />
  <circle cx="371.2" cy="99.4" r="2" fill="#845ef7" />
  <circle cx="374.5" cy="99.9" r="2" fill="#845ef7" />
  <circle cx="377.9" cy="99.4" r="2" fill="#845ef7" />
  <circle cx="381.2" cy="99.0" r="2" fill="#845ef7" />
  <circle cx="384.6" cy="98.5" r="2" fill="#845ef7" />
  <circle cx="387.9" cy="98.5" r="2" fill="#845ef7" />
  <circle cx="391.3" cy="98.5" r="2" fill="#845ef7" />
  <circle cx="394.6" cy="98.1" r="2" fill="#845ef7" />
  <circle cx="398.0" cy="97.6" r="2" fill="#845ef7" />
  <circle cx="401.3" cy="97.6" r="2" fill="#845ef7" />
  <circle cx="404.7" cy="98.1" r="2" fill="#845ef7" />
  <circle cx="408.0" cy="99.0" r="2" fill="#845ef7" />
  <circle cx="411.4" cy="98.5" r="2" fill="#845ef7" />
  <circle cx="414.7" cy="99.0" r="2" fill="#845ef7" />
  <circle cx="418.1" cy="99.4" r="2" fill="#845ef7" />
  <circle cx="421.4" cy="99.4" r="2" fill="#845ef7" />
  <circle cx="424.8" cy="99.4" r="2" fill="#845ef7" />
  <circle cx="428.1" cy="99.4" r="2" fill="#845ef7" />
  <circle cx="431.5" cy="99.9" r="2" fill="#845ef7" />
  <circle cx="434.8" cy="99.4" r="2" fill="#845ef7" />
  <circle cx="438.2" cy="99.4" r="2" fill="#845ef7" />
  <circle cx="441.5" cy="99.0" r="2" fill="#845ef7" />
  <circle cx="444.9" cy="98.5" r="2" fill="#845ef7" />
  <circle cx="448.3" cy="98.1" r="2" fill="#845ef7" />
  <circle cx="451.6" cy="97.6" r="2" fill="#845ef7" />
  <circle cx="455.0" cy="97.1" r="2" fill="#845ef7" />
  <circle cx="458.3" cy="97.1" r="2" fill="#845ef7" />
  <circle cx="461.7" cy="97.1" r="2" fill="#845ef7" />
  <circle cx="465.0" cy="96.7" r="2" fill="#845ef7" />
  <circle cx="468.4" cy="96.2" r="2" fill="#845ef7" />
  <circle cx="471.7" cy="96.2" r="2" fill="#845ef7" />
  <circle cx="475.1" cy="96.2" r="2" fill="#845ef7" />
  <circle cx="478.4" cy="95.8" r="2" fill="#845ef7" />
  <circle cx="481.8" cy="95.8" r="2" fill="#845ef7" />
  <circle cx="485.1" cy="95.3" r="2" fill="#845ef7" />
  <circle cx="488.5" cy="95.3" r="2" fill="#845ef7" />
  <circle cx="491.8" cy="94.8" r="2" fill="#845ef7" />
  <circle cx="495.2" cy="93.9" r="2" fill="#845ef7" />
  <circle cx="498.5" cy="92.5" r="2" fill="#845ef7" />
  <circle cx="501.9" cy="91.6" r="2" fill="#845ef7" />
  <circle cx="505.2" cy="90.2" r="2" fill="#845ef7" />
  <circle cx="508.6" cy="89.3" r="2" fill="#845ef7" />
  <circle cx="511.9" cy="88.4" r="2" fill="#845ef7" />
  <circle cx="515.3" cy="87.5" r="2" fill="#845ef7" />
  <circle cx="518.6" cy="87.0" r="2" fill="#845ef7" />
  <circle cx="522.0" cy="86.5" r="2" fill="#845ef7" />
  <circle cx="525.4" cy="85.6" r="2" fill="#845ef7" />
  <circle cx="528.7" cy="84.2" r="2" fill="#845ef7" />
  <circle cx="532.1" cy="82.8" r="2" fill="#845ef7" />
  <circle cx="535.4" cy="81.9" r="2" fill="#845ef7" />
  <circle cx="538.8" cy="80.5" r="2" fill="#845ef7" />
  <circle cx="542.1" cy="79.6" r="2" fill="#845ef7" />
  <circle cx="545.5" cy="79.2" r="2" fill="#845ef7" />
  <circle cx="548.8" cy="78.2" r="2" fill="#845ef7" />
  <circle cx="552.2" cy="77.8" r="2" fill="#845ef7" />
  <circle cx="555.5" cy="76.4" r="2" fill="#845ef7" />
  <circle cx="558.9" cy="75.5" r="2" fill="#845ef7" />
  <circle cx="562.2" cy="74.5" r="2" fill="#845ef7" />
  <circle cx="565.6" cy="73.6" r="2" fill="#845ef7" />
  <circle cx="568.9" cy="73.2" r="2" fill="#845ef7" />
  <circle cx="572.3" cy="72.2" r="2" fill="#845ef7" />
  <circle cx="575.6" cy="70.9" r="2" fill="#845ef7" />
  <circle cx="579.0" cy="70.4" r="2" fill="#845ef7" />
  <circle cx="582.3" cy="70.4" r="2" fill="#845ef7" />
  <circle cx="585.7" cy="70.4" r="2" fill="#845ef7" />
  <circle cx="589.0" cy="70.9" r="2" fill="#845ef7" />
  <circle cx="592.4" cy="70.9" r="2" fill="#845ef7" />
  <circle cx="595.7" cy="71.3" r="2" fill="#845ef7" />
  <circle cx="599.1" cy="72.2" r="2" fill="#845ef7" />
  <circle cx="602.5" cy="73.6" r="2" fill="#845ef7" />
  <circle cx="605.8" cy="76.4" r="2" fill="#845ef7" />
  <circle cx="609.2" cy="77.8" r="2" fill="#845ef7" />
  <circle cx="612.5" cy="76.9" r="2" fill="#845ef7" />
  <circle cx="615.9" cy="75.9" r="2" fill="#845ef7" />
  <circle cx="619.2" cy="75.9" r="2" fill="#845ef7" />
  <circle cx="622.6" cy="82.4" r="2" fill="#845ef7" />
  <circle cx="624.0" cy="87.0" r="2" fill="#845ef7" />
  <text x="46" y="170" fill="#5a6472" font-size="15" font-family="inherit">12:40 PM</text>
  <text x="624" y="170" text-anchor="end" fill="#5a6472" font-size="15" font-family="inherit">01:00 PM</text>
</svg>