<svg xmlns="http://www.w3.org/2000/svg" viewBox="0 0 640 180" role="img" aria-label="Power chart, max 255 · min 78 w" data-range="max 255 · min 78 w">
  <defs>
    <linearGradient id="power-fill" x1="0" x2="0" y1="0" y2="1">
      <stop offset="0%" stop-color="#4dabf7" stop-opacity="0.28" />
      <stop offset="100%" stop-color="#4dabf7" stop-opacity="0.02" />
    </linearGradient>
  </defs>
  <rect x="0" y="0" width="640" height="180" rx="6" fill="#fbfbfb" fill-opacity="1" />

  <line x1="46" y1="16.0" x2="624" y2="16.0" stroke="#e5e9ef" stroke-width="1" />
  <text x="38" y="21.0" text-anchor="end" fill="#5a6472" font-size="15" font-family="inherit">269</text>
  <line x1="46" y1="59.3" x2="624" y2="59.3" stroke="#e5e9ef" stroke-width="1" />
  <text x="38" y="64.3" text-anchor="end" fill="#5a6472" font-size="15" font-family="inherit">201</text>
  <line x1="46" y1="102.7" x2="624" y2="102.7" stroke="#e5e9ef" stroke-width="1" />
  <text x="38" y="107.7" text-anchor="end" fill="#5a6472" font-size="15" font-family="inherit">132</text>
  <line x1="46" y1="146.0" x2="624" y2="146.0" stroke="#e5e9ef" stroke-width="1" />
  <text x="38" y="151.0" text-anchor="end" fill="#5a6472" font-size="15" font-family="inherit">64</text>
  <polygon points="46,146 46.0,137.0 49.4,78.8 52.8,68.0 56.3,63.0 59.7,61.7 63.1,49.7 66.5,65.5 70.0,49.0 73.4,57.9 76.8,59.2 80.2,60.4 83.7,63.6 87.1,63.0 90.5,63.6 93.9,59.2 97.3,63.0 100.8,63.6 104.2,63.0 107.6,66.8 111.0,64.2 114.5,67.4 117.9,71.2 121.3,75.0 124.7,80.7 128.2,80.1 131.6,81.9 135.0,80.7 138.4,84.5 141.8,85.1 145.3,83.8 148.7,81.3 152.1,81.9 155.5,76.9 159.0,84.5 162.4,75.6 165.8,75.0 169.2,74.4 172.7,47.8 176.1,51.6 179.5,47.8 182.9,49.7 186.3,51.6 189.8,51.6 193.2,50.3 196.6,49.7 200.0,49.7 203.5,49.0 206.9,44.0 210.3,41.4 213.7,42.1 217.2,42.7 220.6,77.5 224.0,86.4 227.4,94.6 230.8,95.9 234.3,96.5 237.7,95.2 241.1,93.3 244.5,94.6 248.0,92.1 251.4,89.5 254.8,90.2 258.2,89.5 261.6,90.2 265.1,89.5 268.5,90.8 271.9,94.0 275.3,93.3 278.8,90.2 282.2,65.5 285.6,72.5 289.0,72.5 292.5,87.6 295.9,88.3 299.3,77.5 302.7,73.1 306.1,69.9 309.6,73.7 313.0,68.7 316.4,69.9 319.8,73.1 323.3,78.8 326.7,76.9 330.1,75.0 333.5,76.3 337.0,79.4 340.4,76.3 343.8,78.8 347.2,75.0 350.6,68.7 354.1,65.5 357.5,59.2 360.9,61.7 364.3,61.1 367.8,57.3 371.2,59.8 374.6,59.2 378.0,56.6 381.5,57.3 384.9,57.3 388.3,42.7 391.7,59.2 395.1,61.7 398.6,61.7 402.0,62.3 405.4,63.0 408.8,63.0 412.3,59.2 415.7,60.4 419.1,58.5 422.5,64.2 426.0,67.4 429.4,70.6 432.8,68.0 436.2,67.4 439.6,66.8 443.1,66.1 446.5,63.6 449.9,68.0 453.3,66.1 456.8,68.0 460.2,68.7 463.6,69.9 467.0,71.2 470.5,69.3 473.9,71.2 477.3,69.9 480.7,69.3 484.1,68.0 487.6,71.2 491.0,75.0 494.4,71.2 497.8,68.7 501.3,66.8 504.7,66.8 508.1,58.5 511.5,58.5 515.0,54.7 518.4,51.6 521.8,41.4 525.2,47.8 528.6,45.9 532.1,47.1 535.5,47.1 538.9,40.8 542.3,36.4 545.8,37.0 549.2,35.7 552.6,37.6 556.0,35.1 559.5,32.6 562.9,27.5 566.3,28.1 569.7,42.7 573.1,47.8 576.6,54.1 580.0,52.8 583.4,50.3 586.8,47.1 590.3,40.8 593.7,37.6 597.1,42.1 600.5,45.9 604.0,44.6 607.4,42.7 610.8,44.6 614.2,44.0 617.6,45.2 621.1,75.6 624.0,75.0 624,146" fill="url(#power-fill)" />
  <line x1="46" y1="16" x2="46" y2="146" stroke="#94a0ad" stroke-width="1.5" />
  <line x1="46" y1="146" x2="624" y2="146" stroke="#94a0ad" stroke-width="1.5" />
  <circle cx="46.0" cy="137.0" r="2" fill="#4dabf7" />
  <circle cx="49.4" cy="78.8" r="2" fill="#4dabf7" />
  <circle cx="52.8" cy="68.0" r="2" fill="#4dabf7" />
  <circle cx="56.3" cy="63.0" r="2" fill="#4dabf7" />
  <circle cx="59.7" cy="61.7" r="2" fill="#4dabf7" />
  <circle cx="63.1" cy="49.7" r="2" fill="#4dabf7" />
  <circle cx="66.5" cy="65.5" r="2" fill="#4dabf7" />
  <circle cx="70.0" cy="49.0" r="2" fill="#4dabf7" />
  <circle cx="73.4" cy="57.9" r="2" fill="#4dabf7" />
  <circle cx="76.8" cy="59.2" r="2" fill="#4dabf7" />
  <circle cx="80.2" cy="60.4" r="2" fill="#4dabf7" />
  <circle cx="83.7" cy="63.6" r="2" fill="#4dabf7" />
  <circle cx="87.1" cy="63.0" r="2" fill="#4dabf7" />
  <circle cx="90.5" cy="63.6" r="2" fill="#4dabf7" />
  <circle cx="93.9" cy="59.2" r="2" fill="#4dabf7" />
  <circle cx="97.3" cy="63.0" r="2" fill="#4dabf7" />
  <circle cx="100.8" cy="63.6" r="2" fill="#4dabf7" />
  <circle cx="104.2" cy="63.0" r="2" fill="#4dabf7" />
  <circle cx="107.6" cy="66.8" r="2" fill="#4dabf7" />
  <circle cx="111.0" cy="64.2" r="2" fill="#4dabf7" />
  <circle cx="114.5" cy="67.4" r="2" fill="#4dabf7" />
  <circle cx="117.9" cy="71.2" r="2" fill="#4dabf7" />
  <circle cx="121.3" cy="75.0" r="2" fill="#4dabf7" />
  <circle cx="124.7" cy="80.7" r="2" fill="#4dabf7" />
  <circle cx="128.2" cy="80.1" r="2" fill="#4dabf7" />
  <circle cx="131.6" cy="81.9" r="2" fill="#4dabf7" />
  <circle cx="135.0" cy="80.7" r="2" fill="#4dabf7" />
  <circle cx="138.4" cy="84.5" r="2" fill="#4dabf7" />
  <circle cx="141.8" cy="85.1" r="2" fill="#4dabf7" />
  <circle cx="145.3" cy="83.8" r="2" fill="#4dabf7" />
  <circle cx="148.7" cy="81.3" r="2" fill="#4dabf7" />
  <circle cx="152.1" cy="81.9" r="2" fill="#4dabf7" />
  <circle cx="155.5" cy="76.9" r="2" fill="#4dabf7" />
  <circle cx="159.0" cy="84.5" r="2" fill="#4dabf7" />
  <circle cx="162.4" cy="75.6" r="2" fill="#4dabf7" />
  <circle cx="165.8" cy="75.0" r="2" fill="#4dabf7" />
  <circle cx="169.2" cy="74.4" r="2" fill="#4dabf7" />
  <circle cx="172.7" cy="47.8" r="2" fill="#4dabf7" />
  <circle cx="176.1" cy="51.6" r="2" fill="#4dabf7" />
  <circle cx="179.5" cy="47.8" r="2" fill="#4dabf7" />
  <circle cx="182.9" cy="49.7" r="2" fill="#4dabf7" />
  <circle cx="186.3" cy="51.6" r="2" fill="#4dabf7" />
  <circle cx="189.8" cy="51.6" r="2" fill="#4dabf7" />
  <circle cx="193.2" cy="50.3" r="2" fill="#4dabf7" />
  <circle cx="196.6" cy="49.7" r="2" fill="#4dabf7" />
  <circle cx="200.0" cy="49.7" r="2" fill="#4dabf7" />
  <circle cx="203.5" cy="49.0" r="2" fill="#4dabf7" />
  <circle cx="206.9" cy="44.0" r="2" fill="#4dabf7" />
  <circle cx="210.3" cy="41.4" r="2" fill="#4dabf7" />
  <circle cx="213.7" cy="42.1" r="2" fill="#4dabf7" />
  <circle cx="217.2" cy="42.7" r="2" fill="#4dabf7" />
  <circle cx="220.6" cy="77.5" r="2" fill="#4dabf7" />
  <circle cx="224.0" cy="86.4" r="2" fill="#4dabf7" />
  <circle cx="227.4" cy="94.6" r="2" fill="#4dabf7" />
  <circle cx="230.8" cy="95.9" r="2" fill="#4dabf7" />
  <circle cx="234.3" cy="96.5" r="2" fill="#4dabf7" />
  <circle cx="237.7" cy="95.2" r="2" fill="#4dabf7" />
  <circle cx="241.1" cy="93.3" r="2" fill="#4dabf7" />
  <circle cx="244.5" cy="94.6" r="2" fill="#4dabf7" />
  <circle cx="248.0" cy="92.1" r="2" fill="#4dabf7" />
  <circle cx="251.4" cy="89.5" r="2" fill="#4dabf7" />
  <circle cx="254.8" cy="90.2" r="2" fill="#4dabf7" />
  <circle cx="258.2" cy="89.5" r="2" fill="#4dabf7" />
  <circle cx="261.6" cy="90.2" r="2" fill="#4dabf7" />
  <circle cx="265.1" cy="89.5" r="2" fill="#4dabf7" />
  <circle cx="268.5" cy="90.8" r="2" fill="#4dabf7" />
  <circle cx="271.9" cy="94.0" r="2" fill="#4dabf7" />
  <circle cx="275.3" cy="93.3" r="2" fill="#4dabf7" />
  <circle cx="278.8" cy="90.2" r="2" fill="#4dabf7" />
  <circle cx="282.2" cy="65.5" r="2" fill="#4dabf7" />
  <circle cx="285.6" cy="72.5" r="2" fill="#4dabf7" />
  <circle cx="289.0" cy="72.5" r="2" fill="#4dabf7" />
  <circle cx="292.5" cy="87.6" r="2" fill="#4dabf7" />
  <circle cx="295.9" cy="88.3" r="2" fill="#4dabf7" />
  <circle cx="299.3" cy="77.5" r="2" fill="#4dabf7" />
  <circle cx="302.7" cy="73.1" r="2" fill="#4dabf7" />
  <circle cx="306.1" cy="69.9" r="2" fill="#4dabf7" />
  <circle cx="309.6" cy="73.7" r="2" fill="#4dabf7" />
  <circle cx="313.0" cy="68.7" r="2" fill="#4dabf7" />
  <circle cx="316.4" cy="69.9" r="2" fill="#4dabf7" />
  <circle cx="319.8" cy="73.1" r="2" fill="#4dabf7" />
  <circle cx="323.3" cy="78.8" r="2" fill="#4dabf7" />
  <circle cx="326.7" cy="76.9" r="2" fill="#4dabf7" />
  <circle cx="330.1" cy="75.0" r="2" fill="#4dabf7" />
  <circle cx="333.5" cy="76.3" r="2" fill="#4dabf7" />
  <circle cx="337.0" cy="79.4" r="2" fill="#4dabf7" />
  <circle cx="340.4" cy="76.3" r="2" fill="#4dabf7" />
  <circle cx="343.8" cy="78.8" r="2" fill="#4dabf7" />
  <circle cx="347.2" cy="75.0" r="2" fill="#4dabf7" />
  <circle cx="350.6" cy="68.7" r="2" fill="#4dabf7" />
  <circle cx="354.1" cy="65.5" r="2" fill="#4dabf7" />
  <circle cx="357.5" cy="59.2" r="2" fill="#4dabf7" />
  <circle cx="360.9" cy="61.7" r="2" fill="#4dabf7" />
  <circle cx="364.3" cy="61.1" r="2" fill="#4dabf7" />
  <circle cx="367.8" cy="57.3" r="2" fill="#4dabf7" />
  <circle cx="371.2" cy="59.8" r="2" fill="#4dabf7" />
  <circle cx="374.6" cy="59.2" r="2" fill="#4dabf7" />
  <circle cx="378.0" cy="56.6" r="2" fill="#4dabf7" />
  <circle cx="381.5" cy="57.3" r="2" fill="#4dabf7" />
  <circle cx="384.9" cy="57.3" r="2" fill="#4dabf7" />
  <circle cx="388.3" cy="42.7" r="2" fill="#4dabf7" />
  <circle cx="391.7" cy="59.2" r="2" fill="#4dabf7" />
  <circle cx="395.1" cy="61.7" r="2" fill="#4dabf7" />
  <circle cx="398.6" cy="61.7" r="2" fill="#4dabf7" />
  <circle cx="402.0" cy="62.3" r="2" fill="#4dabf7" />
  <circle cx="405.4" cy="63.0" r="2" fill="#4dabf7" />
  <circle cx="408.8" cy="63.0" r="2" fill="#4dabf7" />
  <circle cx="412.3" cy="59.2" r="2" fill="#4dabf7" />
  <circle cx="415.7" cy="60.4" r="2" fill="#4dabf7" />
  <circle cx="419.1" cy="58.5" r="2" fill="#4dabf7" />
  <circle cx="422.5" cy="64.2" r="2" fill="#4dabf7" />
  <circle cx="426.0" cy="67.4" r="2" fill="#4dabf7" />
  <circle cx="429.4" cy="70.6" r="2" fill="#4dabf7" />
  <circle cx="432.8" cy="68.0" r="2" fill="#4dabf7" />
  <circle cx="436.2" cy="67.4" r="2" fill="#4dabf7" />
  <circle cx="439.6" cy="66.8" r="2" fill="#4dabf7" />
  <circle cx="443.1" cy="66.1" r="2" fill="#4dabf7" />
  <circle cx="446.5" cy="63.6" r="2" fill="#4dabf7" />
  <circle cx="449.9" cy="68.0" r="2" fill="#4dabf7" />
  <circle cx="453.3" cy="66.1" r="2" fill="#4dabf7" />
  <circle cx="456.8" cy="68.0" r="2" fill="#4dabf7" />
  <circle cx="460.2" cy="68.7" r="2" fill="#4dabf7" />
  <circle cx="463.6" cy="69.9" r="2" fill="#4dabf7" />
  <circle cx="467.0" cy="71.2" r="2" fill="#4dabf7" />
  <circle cx="470.5" cy="69.3" r="2" fill="#4dabf7" />
  <circle cx="473.9" cy="71.2" r="2" fill="#4dabf7" />
  <circle cx="477.3" cy="69.9" r="2" fill="#4dabf7" />
  <circle cx="480.7" cy="69.3" r="2" fill="#4dabf7" />
  <circle cx="484.1" cy="68.0" r="2" fill="#4dabf7" />
  <circle cx="487.6" cy="71.2" r="2" fill="#4dabf7" />
  <circle cx="491.0" cy="75.0" r="2" fill="#4dabf7" />
  <circle cx="494.4" cy="71.2" r="2" fill="#4dabf7" />
  <circle cx="497.8" cy="68.7" r="2" fill="#4dabf7" />
  <circle cx="501.3" cy="66.8" r="2" fill="#4dabf7" />
  <circle cx="504.7" cy="66.8" r="2" fill="#4dabf7" />
  <circle cx="508.1" cy="58.5" r="2" fill="#4dabf7" />
  <circle cx="511.5" cy="58.5" r="2" fill="#4dabf7" />
  <circle cx="515.0" cy="54.7" r="2" fill="#4dabf7" />
  <circle cx="518.4" cy="51.6" r="2" fill="#4dabf7" />
  <circle cx="521.8" cy="41.4" r="2" fill="#4dabf7" />
  <circle cx="525.2" cy="47.8" r="2" fill="#4dabf7" />
  <circle cx="528.6" cy="45.9" r="2" fill="#4dabf7" />
  <circle cx="532.1" cy="47.1" r="2" fill="#4dabf7" />
  <circle cx="535.5" cy="47.1" r="2" fill="#4dabf7" />
  <circle cx="538.9" cy="40.8" r="2" fill="#4dabf7" />
  <circle cx="542.3" cy="36.4" r="2" fill="#4dabf7" />
  <circle cx="545.8" cy="37.0" r="2" fill="#4dabf7" />
  <circle cx="549.2" cy="35.7" r="2" fill="#4dabf7" />
  <circle cx="552.6" cy="37.6" r="2" fill="#4dabf7" />
  <circle cx="556.0" cy="35.1" r="2" fill="#4dabf7" />
  <circle cx="559.5" cy="32.6" r="2" fill="#4dabf7" />
  <circle cx="562.9" cy="27.5" r="2" fill="#4dabf7" />
  <circle cx="566.3" cy="28.1" r="2" fill="#4dabf7" />
  <circle cx="569.7" cy="42.7" r="2" fill="#4dabf7" />
  <circle cx="573.1" cy="47.8" r="2" fill="#4dabf7" />
  <circle cx="576.6" cy="54.1" r="2" fill="#4dabf7" />
  <circle cx="580.0" cy="52.8" r="2" fill="#4dabf7" />
  <circle cx="583.4" cy="50.3" r="2" fill="#4dabf7" />
  <circle cx="586.8" cy="47.1" r="2" fill="#4dabf7" />
  <circle cx="590.3" cy="40.8" r="2" fill="#4dabf7" />
  <circle cx="593.7" cy="37.6" r="2" fill="#4dabf7" />
  <circle cx="597.1" cy="42.1" r="2" fill="#4dabf7" />
  <circle cx="600.5" cy="45.9" r="2" fill="#4dabf7" />
  <circle cx="604.0" cy="44.6" r="2" fill="#4dabf7" />
  <circle cx="607.4" cy="42.7" r="2" fill="#4dabf7" />
  <circle cx="610.8" cy="44.6" r="2" fill="#4dabf7" />
  <circle cx="614.2" cy="44.0" r="2" fill="#4dabf7" />
  <circle cx="617.6" cy="45.2" r="2" fill="#4dabf7" />
  <circle cx="621.1" cy="75.6" r="2" fill="#4dabf7" />
  <circle cx="624.0" cy="75.0" r="2" fill="#4dabf7" />
  <text x="46" y="170" fill="#5a6472" font-size="15" font-family="inherit">09:51 AM</text>
  <text x="624" y="170" text-anchor="end" fill="#5a6472" font-size="15" font-family="inherit">10:10 AM</text>
</svg>