<svg xmlns="http://www.w3.org/2000/svg" viewBox="0 0 640 180" role="img" aria-label="Power chart, max 198 · min 61 w" data-range="max 198 · min 61 w">
  <defs>
    <linearGradient id="power-fill" x1="0" x2="0" y1="0" y2="1">
      <stop offset="0%" stop-color="#4dabf7" stop-opacity="0.28" />
      <stop offset="100%" stop-color="#4dabf7" stop-opacity="0.02" />
    </linearGradient>
  </defs>
  <rect x="0" y="0" width="640" height="180" rx="6" fill="#fbfbfb" fill-opacity="1" />

  <line x1="46" y1="16.0" x2="624" y2="16.0" stroke="#e5e9ef" stroke-width="1" />
  <text x="38" y="21.0" text-anchor="end" fill="#5a6472" font-size="15" font-family="inherit">209</text>
  <line x1="46" y1="59.3" x2="624" y2="59.3" stroke="#e5e9ef" stroke-width="1" />
  <text x="38" y="64.3" text-anchor="end" fill="#5a6472" font-size="15" font-family="inherit">156</text>
  <line x1="46" y1="102.7" x2="624" y2="102.7" stroke="#e5e9ef" stroke-width="1" />
  <text x="38" y="107.7" text-anchor="end" fill="#5a6472" font-size="15" font-family="inherit">103</text>
  <line x1="46" y1="146.0" x2="624" y2="146.0" stroke="#e5e9ef" stroke-width="1" />
  <text x="38" y="151.0" text-anchor="end" fill="#5a6472" font-size="15" font-family="inherit">50</text>
  <polygon points="46,146 46.0,134.6 49.4,48.7 52.7,43.8 56.1,43.0 59.5,43.0 62.9,44.6 66.2,47.9 69.6,47.9 73.0,52.0 76.3,52.0 79.7,52.0 83.1,52.8 86.4,59.3 89.8,56.1 93.2,54.4 96.6,53.6 99.9,57.7 103.3,57.7 106.7,55.2 110.0,56.1 113.4,56.9 116.8,59.3 120.1,56.9 123.5,63.4 126.9,58.5 130.3,57.7 133.6,55.2 137.0,56.9 140.4,57.7 143.7,61.0 147.1,58.5 150.5,53.6 153.8,56.1 157.2,57.7 160.6,59.3 164.0,54.4 167.3,54.4 170.7,52.8 174.1,53.6 177.4,53.6 180.8,47.1 184.2,51.1 187.6,52.0 190.9,51.1 194.3,52.8 197.7,49.5 201.0,47.9 204.4,52.0 207.8,50.3 211.1,52.0 214.5,57.7 217.9,57.7 221.3,52.0 224.6,52.8 228.0,55.2 231.4,51.1 234.7,52.8 238.1,49.5 241.5,48.7 244.8,53.6 248.2,54.4 251.6,53.6 255.0,56.1 258.3,56.9 261.7,53.6 265.1,50.3 268.4,52.0 271.8,52.8 275.2,59.3 278.5,59.3 281.9,57.7 285.3,55.2 288.7,48.7 292.0,47.9 295.4,47.9 298.8,44.6 302.1,47.1 305.5,52.0 308.9,53.6 312.3,51.1 315.6,49.5 319.0,49.5 322.4,49.5 325.7,43.8 329.1,49.5 332.5,118.2 335.8,68.3 339.2,58.5 342.6,50.3 346.0,48.7 349.3,47.1 352.7,48.7 356.1,44.6 359.4,45.4 362.8,51.1 366.2,52.0 369.5,48.7 372.9,49.5 376.3,49.5 379.7,52.8 383.0,51.1 386.4,43.8 389.8,47.9 393.1,52.0 396.5,53.6 399.9,52.0 403.2,49.5 406.6,40.5 410.0,38.9 413.4,39.7 416.7,39.7 420.1,39.7 423.5,44.6 426.8,45.4 430.2,46.2 433.6,45.4 437.0,48.7 440.3,42.1 443.7,46.2 447.1,47.1 450.4,53.6 453.8,51.1 457.2,51.1 460.5,47.9 463.9,43.8 467.3,45.4 470.7,41.3 474.0,45.4 477.4,43.8 480.8,46.2 484.1,43.0 487.5,46.2 490.9,48.7 494.2,51.1 497.6,44.6 501.0,47.1 504.4,50.3 507.7,53.6 511.1,51.1 514.5,48.7 517.8,49.5 521.2,52.8 524.6,49.5 527.9,47.1 531.3,50.3 534.7,51.1 538.1,50.3 541.4,47.9 544.8,48.7 548.2,53.6 551.5,52.0 554.9,52.0 558.3,52.0 561.7,52.0 565.0,52.0 568.4,49.5 571.8,51.1 575.1,47.1 578.5,45.4 581.9,46.2 585.2,41.3 588.6,43.0 592.0,44.6 595.4,44.6 598.7,39.7 602.1,35.6 605.5,34.0 608.8,32.3 612.2,25.8 615.6,25.0 618.9,29.1 622.3,40.5 624.0,132.9 624,146" fill="url(#power-fill)" />
  <line x1="46" y1="16" x2="46" y2="146" stroke="#94a0ad" stroke-width="1.5" />
  <line x1="46" y1="146" x2="624" y2="146" stroke="#94a0ad" stroke-width="1.5" />
  <circle cx="46.0" cy="134.6" r="2" fill="#4dabf7" />
  <circle cx="49.4" cy="48.7" r="2" fill="#4dabf7" />
  <circle cx="52.7" cy="43.8" r="2" fill="#4dabf7" />
  <circle cx="56.1" cy="43.0" r="2" fill="#4dabf7" />
  <circle cx="59.5" cy="43.0" r="2" fill="#4dabf7" />
  <circle cx="62.9" cy="44.6" r="2" fill="#4dabf7" />
  <circle cx="66.2" cy="47.9" r="2" fill="#4dabf7" />
  <circle cx="69.6" cy="47.9" r="2" fill="#4dabf7" />
  <circle cx="73.0" cy="52.0" r="2" fill="#4dabf7" />
  <circle cx="76.3" cy="52.0" r="2" fill="#4dabf7" />
  <circle cx="79.7" cy="52.0" r="2" fill="#4dabf7" />
  <circle cx="83.1" cy="52.8" r="2" fill="#4dabf7" />
  <circle cx="86.4" cy="59.3" r="2" fill="#4dabf7" />
  <circle cx="89.8" cy="56.1" r="2" fill="#4dabf7" />
  <circle cx="93.2" cy="54.4" r="2" fill="#4dabf7" />
  <circle cx="96.6" cy="53.6" r="2" fill="#4dabf7" />
  <circle cx="99.9" cy="57.7" r="2" fill="#4dabf7" />
  <circle cx="103.3" cy="57.7" r="2" fill="#4dabf7" />
  <circle cx="106.7" cy="55.2" r="2" fill="#4dabf7" />
  <circle cx="110.0" cy="56.1" r="2" fill="#4dabf7" />
  <circle cx="113.4" cy="56.9" r="2" fill="#4dabf7" />
  <circle cx="116.8" cy="59.3" r="2" fill="#4dabf7" />
  <circle cx="120.1" cy="56.9" r="2" fill="#4dabf7" />
  <circle cx="123.5" cy="63.4" r="2" fill="#4dabf7" />
  <circle cx="126.9" cy="58.5" r="2" fill="#4dabf7" />
  <circle cx="130.3" cy="57.7" r="2" fill="#4dabf7" />
  <circle cx="133.6" cy="55.2" r="2" fill="#4dabf7" />
  <circle cx="137.0" cy="56.9" r="2" fill="#4dabf7" />
  <circle cx="140.4" cy="57.7" r="2" fill="#4dabf7" />
  <circle cx="143.7" cy="61.0" r="2" fill="#4dabf7" />
  <circle cx="147.1" cy="58.5" r="2" fill="#4dabf7" />
  <circle cx="150.5" cy="53.6" r="2" fill="#4dabf7" />
  <circle cx="153.8" cy="56.1" r="2" fill="#4dabf7" />
  <circle cx="157.2" cy="57.7" r="2" fill="#4dabf7" />
  <circle cx="160.6" cy="59.3" r="2" fill="#4dabf7" />
  <circle cx="164.0" cy="54.4" r="2" fill="#4dabf7" />
  <circle cx="167.3" cy="54.4" r="2" fill="#4dabf7" />
  <circle cx="170.7" cy="52.8" r="2" fill="#4dabf7" />
  <circle cx="174.1" cy="53.6" r="2" fill="#4dabf7" />
  <circle cx="177.4" cy="53.6" r="2" fill="#4dabf7" />
  <circle cx="180.8" cy="47.1" r="2" fill="#4dabf7" />
  <circle cx="184.2" cy="51.1" r="2" fill="#4dabf7" />
  <circle cx="187.6" cy="52.0" r="2" fill="#4dabf7" />
  <circle cx="190.9" cy="51.1" r="2" fill="#4dabf7" />
  <circle cx="194.3" cy="52.8" r="2" fill="#4dabf7" />
  <circle cx="197.7" cy="49.5" r="2" fill="#4dabf7" />
  <circle cx="201.0" cy="47.9" r="2" fill="#4dabf7" />
  <circle cx="204.4" cy="52.0" r="2" fill="#4dabf7" />
  <circle cx="207.8" cy="50.3" r="2" fill="#4dabf7" />
  <circle cx="211.1" cy="52.0" r="2" fill="#4dabf7" />
  <circle cx="214.5" cy="57.7" r="2" fill="#4dabf7" />
  <circle cx="217.9" cy="57.7" r="2" fill="#4dabf7" />
  <circle cx="221.3" cy="52.0" r="2" fill="#4dabf7" />
  <circle cx="224.6" cy="52.8" r="2" fill="#4dabf7" />
  <circle cx="228.0" cy="55.2" r="2" fill="#4dabf7" />
  <circle cx="231.4" cy="51.1" r="2" fill="#4dabf7" />
  <circle cx="234.7" cy="52.8" r="2" fill="#4dabf7" />
  <circle cx="238.1" cy="49.5" r="2" fill="#4dabf7" />
  <circle cx="241.5" cy="48.7" r="2" fill="#4dabf7" />
  <circle cx="244.8" cy="53.6" r="2" fill="#4dabf7" />
  <circle cx="248.2" cy="54.4" r="2" fill="#4dabf7" />
  <circle cx="251.6" cy="53.6" r="2" fill="#4dabf7" />
  <circle cx="255.0" cy="56.1" r="2" fill="#4dabf7" />
  <circle cx="258.3" cy="56.9" r="2" fill="#4dabf7" />
  <circle cx="261.7" cy="53.6" r="2" fill="#4dabf7" />
  <circle cx="265.1" cy="50.3" r="2" fill="#4dabf7" />
  <circle cx="268.4" cy="52.0" r="2" fill="#4dabf7" />
  <circle cx="271.8" cy="52.8" r="2" fill="#4dabf7" />
  <circle cx="275.2" cy="59.3" r="2" fill="#4dabf7" />
  <circle cx="278.5" cy="59.3" r="2" fill="#4dabf7" />
  <circle cx="281.9" cy="57.7" r="2" fill="#4dabf7" />
  <circle cx="285.3" cy="55.2" r="2" fill="#4dabf7" />
  <circle cx="288.7" cy="48.7" r="2" fill="#4dabf7" />
  <circle cx="292.0" cy="47.9" r="2" fill="#4dabf7" />
  <circle cx="295.4" cy="47.9" r="2" fill="#4dabf7" />
  <circle cx="298.8" cy="44.6" r="2" fill="#4dabf7" />
  <circle cx="302.1" cy="47.1" r="2" fill="#4dabf7" />
  <circle cx="305.5" cy="52.0" r="2" fill="#4dabf7" />
  <circle cx="308.9" cy="53.6" r="2" fill="#4dabf7" />
  <circle cx="312.3" cy="51.1" r="2" fill="#4dabf7" />
  <circle cx="315.6" cy="49.5" r="2" fill="#4dabf7" />
  <circle cx="319.0" cy="49.5" r="2" fill="#4dabf7" />
  <circle cx="322.4" cy="49.5" r="2" fill="#4dabf7" />
  <circle cx="325.7" cy="43.8" r="2" fill="#4dabf7" />
  <circle cx="329.1" cy="49.5" r="2" fill="#4dabf7" />
  <circle cx="332.5" cy="118.2" r="2" fill="#4dabf7" />
  <circle cx="335.8" cy="68.3" r="2" fill="#4dabf7" />
  <circle cx="339.2" cy="58.5" r="2" fill="#4dabf7" />
  <circle cx="342.6" cy="50.3" r="2" fill="#4dabf7" />
  <circle cx="346.0" cy="48.7" r="2" fill="#4dabf7" />
  <circle cx="349.3" cy="47.1" r="2" fill="#4dabf7" />
  <circle cx="352.7" cy="48.7" r="2" fill="#4dabf7" />
  <circle cx="356.1" cy="44.6" r="2" fill="#4dabf7" />
  <circle cx="359.4" cy="45.4" r="2" fill="#4dabf7" />
  <circle cx="362.8" cy="51.1" r="2" fill="#4dabf7" />
  <circle cx="366.2" cy="52.0" r="2" fill="#4dabf7" />
  <circle cx="369.5" cy="48.7" r="2" fill="#4dabf7" />
  <circle cx="372.9" cy="49.5" r="2" fill="#4dabf7" />
  <circle cx="376.3" cy="49.5" r="2" fill="#4dabf7" />
  <circle cx="379.7" cy="52.8" r="2" fill="#4dabf7" />
  <circle cx="383.0" cy="51.1" r="2" fill="#4dabf7" />
  <circle cx="386.4" cy="43.8" r="2" fill="#4dabf7" />
  <circle cx="389.8" cy="47.9" r="2" fill="#4dabf7" />
  <circle cx="393.1" cy="52.0" r="2" fill="#4dabf7" />
  <circle cx="396.5" cy="53.6" r="2" fill="#4dabf7" />
  <circle cx="399.9" cy="52.0" r="2" fill="#4dabf7" />
  <circle cx="403.2" cy="49.5" r="2" fill="#4dabf7" />
  <circle cx="406.6" cy="40.5" r="2" fill="#4dabf7" />
  <circle cx="410.0" cy="38.9" r="2" fill="#4dabf7" />
  <circle cx="413.4" cy="39.7" r="2" fill="#4dabf7" />
  <circle cx="416.7" cy="39.7" r="2" fill="#4dabf7" />
  <circle cx="420.1" cy="39.7" r="2" fill="#4dabf7" />
  <circle cx="423.5" cy="44.6" r="2" fill="#4dabf7" />
  <circle cx="426.8" cy="45.4" r="2" fill="#4dabf7" />
  <circle cx="430.2" cy="46.2" r="2" fill="#4dabf7" />
  <circle cx="433.6" cy="45.4" r="2" fill="#4dabf7" />
  <circle cx="437.0" cy="48.7" r="2" fill="#4dabf7" />
  <circle cx="440.3" cy="42.1" r="2" fill="#4dabf7" />
  <circle cx="443.7" cy="46.2" r="2" fill="#4dabf7" />
  <circle cx="447.1" cy="47.1" r="2" fill="#4dabf7" />
  <circle cx="450.4" cy="53.6" r="2" fill="#4dabf7" />
  <circle cx="453.8" cy="51.1" r="2" fill="#4dabf7" />
  <circle cx="457.2" cy="51.1" r="2" fill="#4dabf7" />
  <circle cx="460.5" cy="47.9" r="2" fill="#4dabf7" />
  <circle cx="463.9" cy="43.8" r="2" fill="#4dabf7" />
  <circle cx="467.3" cy="45.4" r="2" fill="#4dabf7" />
  <circle cx="470.7" cy="41.3" r="2" fill="#4dabf7" />
  <circle cx="474.0" cy="45.4" r="2" fill="#4dabf7" />
  <circle cx="477.4" cy="43.8" r="2" fill="#4dabf7" />
  <circle cx="480.8" cy="46.2" r="2" fill="#4dabf7" />
  <circle cx="484.1" cy="43.0" r="2" fill="#4dabf7" />
  <circle cx="487.5" cy="46.2" r="2" fill="#4dabf7" />
  <circle cx="490.9" cy="48.7" r="2" fill="#4dabf7" />
  <circle cx="494.2" cy="51.1" r="2" fill="#4dabf7" />
  <circle cx="497.6" cy="44.6" r="2" fill="#4dabf7" />
  <circle cx="501.0" cy="47.1" r="2" fill="#4dabf7" />
  <circle cx="504.4" cy="50.3" r="2" fill="#4dabf7" />
  <circle cx="507.7" cy="53.6" r="2" fill="#4dabf7" />
  <circle cx="511.1" cy="51.1" r="2" fill="#4dabf7" />
  <circle cx="514.5" cy="48.7" r="2" fill="#4dabf7" />
  <circle cx="517.8" cy="49.5" r="2" fill="#4dabf7" />
  <circle cx="521.2" cy="52.8" r="2" fill="#4dabf7" />
  <circle cx="524.6" cy="49.5" r="2" fill="#4dabf7" />
  <circle cx="527.9" cy="47.1" r="2" fill="#4dabf7" />
  <circle cx="531.3" cy="50.3" r="2" fill="#4dabf7" />
  <circle cx="534.7" cy="51.1" r="2" fill="#4dabf7" />
  <circle cx="538.1" cy="50.3" r="2" fill="#4dabf7" />
  <circle cx="541.4" cy="47.9" r="2" fill="#4dabf7" />
  <circle cx="544.8" cy="48.7" r="2" fill="#4dabf7" />
  <circle cx="548.2" cy="53.6" r="2" fill="#4dabf7" />
  <circle cx="551.5" cy="52.0" r="2" fill="#4dabf7" />
  <circle cx="554.9" cy="52.0" r="2" fill="#4dabf7" />
  <circle cx="558.3" cy="52.0" r="2" fill="#4dabf7" />
  <circle cx="561.7" cy="52.0" r="2" fill="#4dabf7" />
  <circle cx="565.0" cy="52.0" r="2" fill="#4dabf7" />
  <circle cx="568.4" cy="49.5" r="2" fill="#4dabf7" />
  <circle cx="571.8" cy="51.1" r="2" fill="#4dabf7" />
  <circle cx="575.1" cy="47.1" r="2" fill="#4dabf7" />
  <circle cx="578.5" cy="45.4" r="2" fill="#4dabf7" />
  <circle cx="581.9" cy="46.2" r="2" fill="#4dabf7" />
  <circle cx="585.2" cy="41.3" r="2" fill="#4dabf7" />
  <circle cx="588.6" cy="43.0" r="2" fill="#4dabf7" />
  <circle cx="592.0" cy="44.6" r="2" fill="#4dabf7" />
  <circle cx="595.4" cy="44.6" r="2" fill="#4dabf7" />
  <circle cx="598.7" cy="39.7" r="2" fill="#4dabf7" />
  <circle cx="602.1" cy="35.6" r="2" fill="#4dabf7" />
  <circle cx="605.5" cy="34.0" r="2" fill="#4dabf7" />
  <circle cx="608.8" cy="32.3" r="2" fill="#4dabf7" />
  <circle cx="612.2" cy="25.8" r="2" fill="#4dabf7" />
  <circle cx="615.6" cy="25.0" r="2" fill="#4dabf7" />
  <circle cx="618.9" cy="29.1" r="2" fill="#4dabf7" />
  <circle cx="622.3" cy="40.5" r="2" fill="#4dabf7" />
  <circle cx="624.0" cy="132.9" r="2" fill="#4dabf7" />
  <text x="46" y="170" fill="#5a6472" font-size="15" font-family="inherit">01:11 PM</text>
  <text x="624" y="170" text-anchor="end" fill="#5a6472" font-size="15" font-family="inherit">01:40 PM</text>
</svg>