<svg xmlns="http://www.w3.org/2000/svg" viewBox="0 0 640 180" role="img" aria-label="Speed chart, max 11 · min 6 km/h" data-range="max 11 · min 6 km/h">
  <defs>
    <linearGradient id="speed-fill" x1="0" x2="0" y1="0" y2="1">
      <stop offset="0%" stop-color="#f59f00" stop-opacity="0.28" />
      <stop offset="100%" stop-color="#f59f00" stop-opacity="0.02" />
    </linearGradient>
  </defs>
  <rect x="0" y="0" width="640" height="180" rx="6" fill="#fbfbfb" fill-opacity="1" />

  <line x1="46" y1="16.0" x2="624" y2="16.0" stroke="#e5e9ef" stroke-width="1" />
  <text x="38" y="21.0" text-anchor="end" fill="#5a6472" font-size="15" font-family="inherit">12</text>
  <line x1="46" y1="59.3" x2="624" y2="59.3" stroke="#e5e9ef" stroke-width="1" />
  <text x="38" y="64.3" text-anchor="end" fill="#5a6472" font-size="15" font-family="inherit">10</text>
  <line x1="46" y1="102.7" x2="624" y2="102.7" stroke="#e5e9ef" stroke-width="1" />
  <text x="38" y="107.7" text-anchor="end" fill="#5a6472" font-size="15" font-family="inherit">7</text>
  <line x1="46" y1="146.0" x2="624" y2="146.0" stroke="#e5e9ef" stroke-width="1" />
  <text x="38" y="151.0" text-anchor="end" fill="#5a6472" font-size="15" font-family="inherit">5</text>
  <polygon points="46,146 46.0,105.4 49.3,93.6 52.5,90.9 55.8,94.9 59.1,92.7 62.3,86.3 65.6,75.4 68.9,73.6 72.1,72.7 75.4,75.8 78.7,64.1 81.9,69.2 85.2,68.4 88.5,79.3 91.8,75.6 95.0,75.6 98.3,65.6 101.6,62.9 104.8,67.5 108.1,70.8 111.4,79.4 114.6,74.2 117.9,79.4 121.2,82.0 124.4,80.1 127.7,83.2 131.0,78.9 134.2,79.9 137.5,77.6 140.8,78.6 144.0,77.1 147.3,81.2 150.6,78.1 153.8,90.9 157.1,90.0 160.4,97.9 163.7,87.1 166.9,87.3 170.2,90.3 173.5,89.6 176.7,95.0 180.0,94.6 183.3,102.1 186.5,91.6 189.8,98.4 193.1,92.6 196.3,85.4 199.6,77.8 202.9,76.8 206.1,87.7 209.4,85.7 212.7,92.3 215.9,80.3 219.2,87.5 222.5,83.8 225.7,70.1 229.0,69.6 232.3,71.7 235.6,79.0 238.8,64.9 242.1,66.5 245.4,64.6 248.6,73.1 251.9,74.1 255.2,83.5 258.4,79.3 261.7,82.0 265.0,81.7 268.2,82.1 271.5,78.3 274.8,75.2 278.0,78.3 281.3,78.2 284.6,84.3 287.8,69.9 291.1,59.3 294.4,63.9 297.6,70.6 300.9,67.0 304.2,67.7 307.5,70.0 310.7,75.5 314.0,77.4 317.3,77.7 320.5,79.9 323.8,73.6 327.1,75.9 330.3,74.0 333.6,79.9 338.3,116.5 341.5,122.9 344.8,124.1 348.1,95.3 351.3,79.9 354.6,70.5 357.9,68.2 361.1,73.7 364.4,61.8 367.7,75.5 370.9,76.0 374.2,91.4 377.5,70.3 380.8,82.8 384.0,84.6 387.3,89.3 390.6,91.5 393.8,88.3 397.1,75.9 400.4,62.4 403.6,69.9 406.9,74.9 410.2,99.5 413.4,61.6 416.7,63.3 420.0,63.8 423.2,85.6 426.5,79.3 429.8,78.0 433.0,67.0 436.3,85.5 439.6,79.8 442.8,84.6 446.1,69.0 449.4,75.5 452.7,78.9 455.9,84.2 459.2,79.0 462.5,81.9 465.7,79.1 469.0,87.1 472.3,82.1 475.5,72.4 478.8,79.1 482.1,83.4 485.3,91.0 488.6,83.7 491.9,87.1 495.1,85.5 498.4,86.5 501.7,79.9 504.9,78.6 508.2,72.1 511.5,62.5 514.7,72.2 518.0,68.1 521.3,79.9 524.6,67.4 527.8,75.1 531.1,70.4 534.4,75.0 537.6,72.0 540.9,76.8 544.2,76.7 547.4,80.9 550.7,69.8 554.0,65.0 557.2,68.4 560.5,70.5 563.8,74.7 567.0,79.3 570.3,83.8 573.6,77.0 576.8,78.1 580.1,71.5 583.4,76.9 586.6,63.0 589.9,63.1 593.2,66.6 596.5,74.3 599.7,79.0 603.0,68.9 606.3,66.1 609.5,55.5 612.8,68.8 616.1,68.0 619.3,68.0 622.6,65.5 624.0,86.3 624,146" fill="url(#speed-fill)" />
  <line x1="46" y1="16" x2="46" y2="146" stroke="#94a0ad" stroke-width="1.5" />
  <line x1="46" y1="146" x2="624" y2="146" stroke="#94a0ad" stroke-width="1.5" />
  <circle cx="46.0" cy="105.4" r="2" fill="#f59f00" />
  <circle cx="49.3" cy="93.6" r="2" fill="#f59f00" />
  <circle cx="52.5" cy="90.9" r="2" fill="#f59f00" />
  <circle cx="55.8" cy="94.9" r="2" fill="#f59f00" />
  <circle cx="59.1" cy="92.7" r="2" fill="#f59f00" />
  <circle cx="62.3" cy="86.3" r="2" fill="#f59f00" />
  <circle cx="65.6" cy="75.4" r="2" fill="#f59f00" />
  <circle cx="68.9" cy="73.6" r="2" fill="#f59f00" />
  <circle cx="72.1" cy="72.7" r="2" fill="#f59f00" />
  <circle cx="75.4" cy="75.8" r="2" fill="#f59f00" />
  <circle cx="78.7" cy="64.1" r="2" fill="#f59f00" />
  <circle cx="81.9" cy="69.2" r="2" fill="#f59f00" />
  <circle cx="85.2" cy="68.4" r="2" fill="#f59f00" />
  <circle cx="88.5" cy="79.3" r="2" fill="#f59f00" />
  <circle cx="91.8" cy="75.6" r="2" fill="#f59f00" />
  <circle cx="95.0" cy="75.6" r="2" fill="#f59f00" />
  <circle cx="98.3" cy="65.6" r="2" fill="#f59f00" />
  <circle cx="101.6" cy="62.9" r="2" fill="#f59f00" />
  <circle cx="104.8" cy="67.5" r="2" fill="#f59f00" />
  <circle cx="108.1" cy="70.8" r="2" fill="#f59f00" />
  <circle cx="111.4" cy="79.4" r="2" fill="#f59f00" />
  <circle cx="114.6" cy="74.2" r="2" fill="#f59f00" />
  <circle cx="117.9" cy="79.4" r="2" fill="#f59f00" />
  <circle cx="121.2" cy="82.0" r="2" fill="#f59f00" />
  <circle cx="124.4" cy="80.1" r="2" fill="#f59f00" />
  <circle cx="127.7" cy="83.2" r="2" fill="#f59f00" />
  <circle cx="131.0" cy="78.9" r="2" fill="#f59f00" />
  <circle cx="134.2" cy="79.9" r="2" fill="#f59f00" />
  <circle cx="137.5" cy="77.6" r="2" fill="#f59f00" />
  <circle cx="140.8" cy="78.6" r="2" fill="#f59f00" />
  <circle cx="144.0" cy="77.1" r="2" fill="#f59f00" />
  <circle cx="147.3" cy="81.2" r="2" fill="#f59f00" />
  <circle cx="150.6" cy="78.1" r="2" fill="#f59f00" />
  <circle cx="153.8" cy="90.9" r="2" fill="#f59f00" />
  <circle cx="157.1" cy="90.0" r="2" fill="#f59f00" />
  <circle cx="160.4" cy="97.9" r="2" fill="#f59f00" />
  <circle cx="163.7" cy="87.1" r="2" fill="#f59f00" />
  <circle cx="166.9" cy="87.3" r="2" fill="#f59f00" />
  <circle cx="170.2" cy="90.3" r="2" fill="#f59f00" />
  <circle cx="173.5" cy="89.6" r="2" fill="#f59f00" />
  <circle cx="176.7" cy="95.0" r="2" fill="#f59f00" />
  <circle cx="180.0" cy="94.6" r="2" fill="#f59f00" />
  <circle cx="183.3" cy="102.1" r="2" fill="#f59f00" />
  <circle cx="186.5" cy="91.6" r="2" fill="#f59f00" />
  <circle cx="189.8" cy="98.4" r="2" fill="#f59f00" />
  <circle cx="193.1" cy="92.6" r="2" fill="#f59f00" />
  <circle cx="196.3" cy="85.4" r="2" fill="#f59f00" />
  <circle cx="199.6" cy="77.8" r="2" fill="#f59f00" />
  <circle cx="202.9" cy="76.8" r="2" fill="#f59f00" />
  <circle cx="206.1" cy="87.7" r="2" fill="#f59f00" />
  <circle cx="209.4" cy="85.7" r="2" fill="#f59f00" />
  <circle cx="212.7" cy="92.3" r="2" fill="#f59f00" />
  <circle cx="215.9" cy="80.3" r="2" fill="#f59f00" />
  <circle cx="219.2" cy="87.5" r="2" fill="#f59f00" />
  <circle cx="222.5" cy="83.8" r="2" fill="#f59f00" />
  <circle cx="225.7" cy="70.1" r="2" fill="#f59f00" />
  <circle cx="229.0" cy="69.6" r="2" fill="#f59f00" />
  <circle cx="232.3" cy="71.7" r="2" fill="#f59f00" />
  <circle cx="235.6" cy="79.0" r="2" fill="#f59f00" />
  <circle cx="238.8" cy="64.9" r="2" fill="#f59f00" />
  <circle cx="242.1" cy="66.5" r="2" fill="#f59f00" />
  <circle cx="245.4" cy="64.6" r="2" fill="#f59f00" />
  <circle cx="248.6" cy="73.1" r="2" fill="#f59f00" />
  <circle cx="251.9" cy="74.1" r="2" fill="#f59f00" />
  <circle cx="255.2" cy="83.5" r="2" fill="#f59f00" />
  <circle cx="258.4" cy="79.3" r="2" fill="#f59f00" />
  <circle cx="261.7" cy="82.0" r="2" fill="#f59f00" />
  <circle cx="265.0" cy="81.7" r="2" fill="#f59f00" />
  <circle cx="268.2" cy="82.1" r="2" fill="#f59f00" />
  <circle cx="271.5" cy="78.3" r="2" fill="#f59f00" />
  <circle cx="274.8" cy="75.2" r="2" fill="#f59f00" />
  <circle cx="278.0" cy="78.3" r="2" fill="#f59f00" />
  <circle cx="281.3" cy="78.2" r="2" fill="#f59f00" />
  <circle cx="284.6" cy="84.3" r="2" fill="#f59f00" />
  <circle cx="287.8" cy="69.9" r="2" fill="#f59f00" />
  <circle cx="291.1" cy="59.3" r="2" fill="#f59f00" />
  <circle cx="294.4" cy="63.9" r="2" fill="#f59f00" />
  <circle cx="297.6" cy="70.6" r="2" fill="#f59f00" />
  <circle cx="300.9" cy="67.0" r="2" fill="#f59f00" />
  <circle cx="304.2" cy="67.7" r="2" fill="#f59f00" />
  <circle cx="307.5" cy="70.0" r="2" fill="#f59f00" />
  <circle cx="310.7" cy="75.5" r="2" fill="#f59f00" />
  <circle cx="314.0" cy="77.4" r="2" fill="#f59f00" />
  <circle cx="317.3" cy="77.7" r="2" fill="#f59f00" />
  <circle cx="320.5" cy="79.9" r="2" fill="#f59f00" />
  <circle cx="323.8" cy="73.6" r="2" fill="#f59f00" />
  <circle cx="327.1" cy="75.9" r="2" fill="#f59f00" />
  <circle cx="330.3" cy="74.0" r="2" fill="#f59f00" />
  <circle cx="333.6" cy="79.9" r="2" fill="#f59f00" />
  <circle cx="338.3" cy="116.5" r="2" fill="#f59f00" />
  <circle cx="341.5" cy="122.9" r="2" fill="#f59f00" />
  <circle cx="344.8" cy="124.1" r="2" fill="#f59f00" />
  <circle cx="348.1" cy="95.3" r="2" fill="#f59f00" />
  <circle cx="351.3" cy="79.9" r="2" fill="#f59f00" />
  <circle cx="354.6" cy="70.5" r="2" fill="#f59f00" />
  <circle cx="357.9" cy="68.2" r="2" fill="#f59f00" />
  <circle cx="361.1" cy="73.7" r="2" fill="#f59f00" />
  <circle cx="364.4" cy="61.8" r="2" fill="#f59f00" />
  <circle cx="367.7" cy="75.5" r="2" fill="#f59f00" />
  <circle cx="370.9" cy="76.0" r="2" fill="#f59f00" />
  <circle cx="374.2" cy="91.4" r="2" fill="#f59f00" />
  <circle cx="377.5" cy="70.3" r="2" fill="#f59f00" />
  <circle cx="380.8" cy="82.8" r="2" fill="#f59f00" />
  <circle cx="384.0" cy="84.6" r="2" fill="#f59f00" />
  <circle cx="387.3" cy="89.3" r="2" fill="#f59f00" />
  <circle cx="390.6" cy="91.5" r="2" fill="#f59f00" />
  <circle cx="393.8" cy="88.3" r="2" fill="#f59f00" />
  <circle cx="397.1" cy="75.9" r="2" fill="#f59f00" />
  <circle cx="400.4" cy="62.4" r="2" fill="#f59f00" />
  <circle cx="403.6" cy="69.9" r="2" fill="#f59f00" />
  <circle cx="406.9" cy="74.9" r="2" fill="#f59f00" />
  <circle cx="410.2" cy="99.5" r="2" fill="#f59f00" />
  <circle cx="413.4" cy="61.6" r="2" fill="#f59f00" />
  <circle cx="416.7" cy="63.3" r="2" fill="#f59f00" />
  <circle cx="420.0" cy="63.8" r="2" fill="#f59f00" />
  <circle cx="423.2" cy="85.6" r="2" fill="#f59f00" />
  <circle cx="426.5" cy="79.3" r="2" fill="#f59f00" />
  <circle cx="429.8" cy="78.0" r="2" fill="#f59f00" />
  <circle cx="433.0" cy="67.0" r="2" fill="#f59f00" />
  <circle cx="436.3" cy="85.5" r="2" fill="#f59f00" />
  <circle cx="439.6" cy="79.8" r="2" fill="#f59f00" />
  <circle cx="442.8" cy="84.6" r="2" fill="#f59f00" />
  <circle cx="446.1" cy="69.0" r="2" fill="#f59f00" />
  <circle cx="449.4" cy="75.5" r="2" fill="#f59f00" />
  <circle cx="452.7" cy="78.9" r="2" fill="#f59f00" />
  <circle cx="455.9" cy="84.2" r="2" fill="#f59f00" />
  <circle cx="459.2" cy="79.0" r="2" fill="#f59f00" />
  <circle cx="462.5" cy="81.9" r="2" fill="#f59f00" />
  <circle cx="465.7" cy="79.1" r="2" fill="#f59f00" />
  <circle cx="469.0" cy="87.1" r="2" fill="#f59f00" />
  <circle cx="472.3" cy="82.1" r="2" fill="#f59f00" />
  <circle cx="475.5" cy="72.4" r="2" fill="#f59f00" />
  <circle cx="478.8" cy="79.1" r="2" fill="#f59f00" />
  <circle cx="482.1" cy="83.4" r="2" fill="#f59f00" />
  <circle cx="485.3" cy="91.0" r="2" fill="#f59f00" />
  <circle cx="488.6" cy="83.7" r="2" fill="#f59f00" />
  <circle cx="491.9" cy="87.1" r="2" fill="#f59f00" />
  <circle cx="495.1" cy="85.5" r="2" fill="#f59f00" />
  <circle cx="498.4" cy="86.5" r="2" fill="#f59f00" />
  <circle cx="501.7" cy="79.9" r="2" fill="#f59f00" />
  <circle cx="504.9" cy="78.6" r="2" fill="#f59f00" />
  <circle cx="508.2" cy="72.1" r="2" fill="#f59f00" />
  <circle cx="511.5" cy="62.5" r="2" fill="#f59f00" />
  <circle cx="514.7" cy="72.2" r="2" fill="#f59f00" />
  <circle cx="518.0" cy="68.1" r="2" fill="#f59f00" />
  <circle cx="521.3" cy="79.9" r="2" fill="#f59f00" />
  <circle cx="524.6" cy="67.4" r="2" fill="#f59f00" />
  <circle cx="527.8" cy="75.1" r="2" fill="#f59f00" />
  <circle cx="531.1" cy="70.4" r="2" fill="#f59f00" />
  <circle cx="534.4" cy="75.0" r="2" fill="#f59f00" />
  <circle cx="537.6" cy="72.0" r="2" fill="#f59f00" />
  <circle cx="540.9" cy="76.8" r="2" fill="#f59f00" />
  <circle cx="544.2" cy="76.7" r="2" fill="#f59f00" />
  <circle cx="547.4" cy="80.9" r="2" fill="#f59f00" />
  <circle cx="550.7" cy="69.8" r="2" fill="#f59f00" />
  <circle cx="554.0" cy="65.0" r="2" fill="#f59f00" />
  <circle cx="557.2" cy="68.4" r="2" fill="#f59f00" />
  <circle cx="560.5" cy="70.5" r="2" fill="#f59f00" />
  <circle cx="563.8" cy="74.7" r="2" fill="#f59f00" />
  <circle cx="567.0" cy="79.3" r="2" fill="#f59f00" />
  <circle cx="570.3" cy="83.8" r="2" fill="#f59f00" />
  <circle cx="573.6" cy="77.0" r="2" fill="#f59f00" />
  <circle cx="576.8" cy="78.1" r="2" fill="#f59f00" />
  <circle cx="580.1" cy="71.5" r="2" fill="#f59f00" />
  <circle cx="583.4" cy="76.9" r="2" fill="#f59f00" />
  <circle cx="586.6" cy="63.0" r="2" fill="#f59f00" />
  <circle cx="589.9" cy="63.1" r="2" fill="#f59f00" />
  <circle cx="593.2" cy="66.6" r="2" fill="#f59f00" />
  <circle cx="596.5" cy="74.3" r="2" fill="#f59f00" />
  <circle cx="599.7" cy="79.0" r="2" fill="#f59f00" />
  <circle cx="603.0" cy="68.9" r="2" fill="#f59f00" />
  <circle cx="606.3" cy="66.1" r="2" fill="#f59f00" />
  <circle cx="609.5" cy="55.5" r="2" fill="#f59f00" />
  <circle cx="612.8" cy="68.8" r="2" fill="#f59f00" />
  <circle cx="616.1" cy="68.0" r="2" fill="#f59f00" />
  <circle cx="619.3" cy="68.0" r="2" fill="#f59f00" />
  <circle cx="622.6" cy="65.5" r="2" fill="#f59f00" />
  <circle cx="624.0" cy="86.3" r="2" fill="#f59f00" />
  <text x="46" y="170" fill="#5a6472" font-size="15" font-family="inherit">10:30 AM</text>
  <text x="624" y="170" text-anchor="end" fill="#5a6472" font-size="15" font-family="inherit">10:51 AM</text>
</svg>