<svg xmlns="http://www.w3.org/2000/svg" viewBox="0 0 640 180" role="img" aria-label="Cadence chart">
  <defs>
    <linearGradient id="cadence-fill" x1="0" x2="0" y1="0" y2="1">
      <stop offset="0%" stop-color="#51cf66" stop-opacity="0.35" />
      <stop offset="100%" stop-color="#51cf66" stop-opacity="0.03" />
    </linearGradient>
  </defs>
  <rect x="0" y="0" width="640" height="180" rx="18" fill="#fbfbfb" fill-opacity="1" />
  
      <line x1="46" y1="18.0" x2="622" y2="18.0" stroke="#d7dde3" stroke-width="1" />
      <text x="10" y="22.0" fill="#4d5560" font-size="10" font-family="inherit">82</text>
    
      <line x1="46" y1="62.0" x2="622" y2="62.0" stroke="#d7dde3" stroke-width="1" />
      <text x="10" y="66.0" fill="#4d5560" font-size="10" font-family="inherit">77</text>
    
      <line x1="46" y1="106.0" x2="622" y2="106.0" stroke="#d7dde3" stroke-width="1" />
      <text x="10" y="110.0" fill="#4d5560" font-size="10" font-family="inherit">71</text>
    
      <line x1="46" y1="150.0" x2="622" y2="150.0" stroke="#d7dde3" stroke-width="1" />
      <text x="10" y="154.0" fill="#4d5560" font-size="10" font-family="inherit">66</text>
    
  <polygon points="46,150 46.0,116.5 46.7,116.5 47.3,116.5 48.0,100.3 48.7,100.3 49.3,100.3 50.0,84.0 50.6,84.0 51.3,84.0 52.0,67.7 52.6,67.7 53.3,67.7 54.0,67.7 54.6,67.7 55.3,67.7 55.9,92.1 56.6,92.1 57.3,92.1 57.9,92.1 58.6,92.1 59.3,92.1 59.9,92.1 60.6,92.1 61.2,92.1 61.9,92.1 62.6,92.1 63.2,92.1 63.9,67.7 64.6,67.7 65.2,67.7 65.9,92.1 66.5,92.1 67.2,92.1 67.9,67.7 68.5,67.7 69.2,67.7 69.9,67.7 70.5,67.7 71.2,67.7 71.9,67.7 72.5,67.7 73.2,67.7 73.8,67.7 74.5,67.7 75.2,67.7 75.8,67.7 76.5,67.7 77.2,67.7 77.8,92.1 78.5,92.1 79.1,92.1 79.8,75.9 80.5,75.9 81.1,75.9 81.8,92.1 82.5,92.1 83.1,92.1 83.8,75.9 84.4,75.9 85.1,75.9 85.8,84.0 86.4,84.0 87.1,84.0 87.8,92.1 88.4,92.1 89.1,92.1 89.7,67.7 90.4,67.7 91.1,67.7 91.7,84.0 92.4,84.0 93.1,84.0 93.7,67.7 94.4,67.7 95.0,67.7 95.7,84.0 96.4,84.0 97.0,84.0 97.7,75.9 98.4,75.9 99.0,75.9 99.7,92.1 100.4,92.1 101.0,92.1 101.7,92.1 102.3,92.1 103.0,92.1 103.7,75.9 104.3,75.9 105.0,75.9 105.7,75.9 106.3,75.9 107.0,75.9 107.6,67.7 108.3,67.7 109.0,67.7 109.6,84.0 110.3,84.0 111.0,84.0 111.6,67.7 112.3,67.7 112.9,67.7 113.6,84.0 114.3,84.0 114.9,84.0 115.6,67.7 116.3,67.7 116.9,67.7 117.6,75.9 118.2,75.9 118.9,75.9 119.6,75.9 120.2,75.9 120.9,75.9 121.6,84.0 122.2,84.0 122.9,84.0 123.6,92.1 124.2,92.1 124.9,92.1 125.5,92.1 126.2,92.1 126.9,92.1 127.5,84.0 128.2,84.0 128.9,84.0 129.5,84.0 130.2,84.0 130.8,84.0 131.5,67.7 132.2,67.7 132.8,67.7 133.5,75.9 134.2,75.9 134.8,75.9 135.5,92.1 136.1,92.1 136.8,92.1 137.5,75.9 138.1,75.9 138.8,75.9 139.5,92.1 140.1,92.1 140.8,92.1 141.4,75.9 142.1,75.9 142.8,75.9 143.4,84.0 144.1,84.0 144.8,84.0 145.4,92.1 146.1,92.1 146.8,92.1 147.4,67.7 148.1,67.7 148.7,67.7 149.4,92.1 150.1,92.1 150.7,92.1 151.4,75.9 152.1,75.9 152.7,75.9 153.4,84.0 154.0,84.0 154.7,84.0 155.4,92.1 156.0,92.1 156.7,92.1 157.4,67.7 158.0,67.7 158.7,67.7 159.3,84.0 160.0,84.0 160.7,84.0 161.3,67.7 162.0,67.7 162.7,67.7 163.3,75.9 164.0,75.9 164.6,75.9 165.3,75.9 166.0,75.9 166.6,75.9 167.3,84.0 168.0,84.0 168.6,84.0 169.3,67.7 169.9,67.7 170.6,67.7 171.3,67.7 171.9,67.7 172.6,67.7 173.3,84.0 173.9,84.0 174.6,84.0 175.3,75.9 175.9,75.9 176.6,75.9 177.2,75.9 177.9,75.9 178.6,75.9 179.2,67.7 179.9,67.7 180.6,67.7 181.2,67.7 181.9,67.7 182.5,67.7 183.2,92.1 183.9,92.1 184.5,92.1 185.2,92.1 185.9,92.1 186.5,92.1 187.2,100.3 187.8,100.3 188.5,100.3 189.2,75.9 189.8,75.9 190.5,75.9 191.2,92.1 191.8,92.1 192.5,92.1 193.1,67.7 193.8,67.7 194.5,67.7 195.1,67.7 195.8,67.7 196.5,67.7 197.1,67.7 197.8,67.7 198.5,67.7 199.1,84.0 199.8,84.0 200.4,84.0 201.1,75.9 201.8,75.9 202.4,75.9 203.1,92.1 203.8,92.1 204.4,92.1 205.1,67.7 205.7,67.7 206.4,67.7 207.1,67.7 207.7,67.7 208.4,67.7 209.1,67.7 209.7,67.7 210.4,67.7 211.0,67.7 211.7,67.7 212.4,67.7 213.0,67.7 213.7,67.7 214.4,67.7 215.0,67.7 215.7,67.7 216.3,67.7 217.0,67.7 217.7,67.7 218.3,67.7 219.0,67.7 219.7,67.7 220.3,67.7 221.0,67.7 221.7,67.7 222.3,67.7 223.0,67.7 223.6,67.7 224.3,67.7 225.0,67.7 225.6,67.7 226.3,67.7 227.0,67.7 227.6,67.7 228.3,67.7 228.9,67.7 229.6,67.7 230.3,67.7 230.9,67.7 231.6,67.7 232.3,67.7 232.9,67.7 233.6,67.7 234.2,67.7 234.9,67.7 235.6,67.7 236.2,67.7 236.9,67.7 237.6,67.7 238.2,67.7 238.9,67.7 239.5,67.7 240.2,67.7 240.9,67.7 241.5,67.7 242.2,67.7 242.9,84.0 243.5,84.0 244.2,84.0 244.8,75.9 245.5,75.9 246.2,75.9 246.8,75.9 247.5,75.9 248.2,75.9 248.8,67.7 249.5,67.7 250.2,67.7 250.8,67.7 251.5,67.7 252.1,67.7 252.8,67.7 253.5,67.7 254.1,67.7 254.8,67.7 255.5,67.7 256.1,67.7 256.8,67.7 257.4,67.7 258.1,67.7 258.8,67.7 259.4,67.7 260.1,67.7 260.8,67.7 261.4,67.7 262.1,67.7 262.7,67.7 263.4,67.7 264.1,67.7 264.7,67.7 265.4,67.7 266.1,67.7 266.7,67.7 267.4,67.7 268.0,67.7 268.7,67.7 269.4,67.7 270.0,67.7 270.7,67.7 271.4,67.7 272.0,67.7 272.7,67.7 273.4,67.7 274.0,67.7 274.7,59.6 275.3,59.6 276.0,59.6 276.7,51.5 277.3,51.5 278.0,51.5 278.7,51.5 279.3,51.5 280.0,51.5 280.6,59.6 281.3,59.6 282.0,59.6 282.6,67.7 283.3,67.7 284.0,67.7 284.6,67.7 285.3,67.7 285.9,67.7 286.6,67.7 287.3,67.7 287.9,67.7 288.6,75.9 289.3,75.9 289.9,75.9 290.6,75.9 291.2,75.9 291.9,75.9 292.6,84.0 293.2,84.0 293.9,84.0 294.6,67.7 295.2,67.7 295.9,67.7 296.6,67.7 297.2,67.7 297.9,67.7 298.5,67.7 299.2,67.7 299.9,67.7 300.5,75.9 301.2,75.9 301.9,75.9 302.5,75.9 303.2,75.9 303.8,75.9 304.5,84.0 305.2,84.0 305.8,84.0 306.5,67.7 307.2,67.7 307.8,67.7 308.5,67.7 309.1,67.7 309.8,67.7 310.5,67.7 311.1,67.7 311.8,67.7 312.5,67.7 313.1,67.7 313.8,67.7 314.4,67.7 315.1,67.7 315.8,67.7 316.4,67.7 317.1,67.7 317.8,67.7 318.4,67.7 319.1,67.7 319.7,67.7 320.4,67.7 321.1,67.7 321.7,67.7 322.4,67.7 323.1,67.7 323.7,67.7 324.4,67.7 325.1,67.7 325.7,67.7 326.4,84.0 327.0,84.0 327.7,84.0 328.4,75.9 329.0,75.9 329.7,75.9 330.4,67.7 331.0,67.7 331.7,67.7 332.3,67.7 333.0,67.7 333.7,67.7 334.3,51.5 335.0,51.5 335.7,51.5 336.3,75.9 337.6,75.9 338.3,75.9 339.0,75.9 339.6,75.9 340.3,84.0 341.0,84.0 341.6,84.0 342.3,67.7 342.9,67.7 343.6,67.7 344.3,67.7 344.9,67.7 345.6,67.7 346.3,67.7 346.9,67.7 347.6,67.7 348.3,67.7 348.9,67.7 349.6,67.7 350.2,67.7 350.9,67.7 351.6,67.7 352.2,67.7 352.9,67.7 353.6,67.7 354.2,67.7 354.9,67.7 355.5,67.7 356.2,67.7 356.9,67.7 357.5,67.7 358.2,67.7 358.9,67.7 359.5,67.7 360.2,67.7 360.8,67.7 361.5,67.7 362.2,67.7 362.8,67.7 363.5,67.7 364.2,67.7 364.8,67.7 365.5,67.7 366.1,67.7 366.8,67.7 367.5,67.7 368.1,67.7 368.8,67.7 369.5,67.7 370.1,67.7 370.8,67.7 371.4,67.7 372.1,67.7 372.8,67.7 373.4,67.7 374.1,67.7 374.8,67.7 375.4,67.7 376.1,67.7 376.8,67.7 377.4,67.7 378.1,67.7 378.7,67.7 379.4,67.7 380.1,67.7 380.7,67.7 381.4,67.7 382.1,67.7 382.7,67.7 383.4,67.7 384.0,67.7 384.7,67.7 385.4,67.7 386.0,67.7 386.7,67.7 387.4,67.7 388.0,67.7 388.7,67.7 389.3,67.7 390.0,67.7 390.7,67.7 391.3,67.7 392.0,67.7 392.7,67.7 393.3,67.7 394.0,67.7 394.6,67.7 395.3,67.7 396.0,67.7 396.6,67.7 397.3,67.7 398.0,67.7 398.6,67.7 399.3,67.7 400.0,67.7 400.6,67.7 401.3,67.7 401.9,67.7 402.6,67.7 403.3,67.7 403.9,67.7 404.6,67.7 405.3,67.7 405.9,67.7 406.6,67.7 407.2,67.7 407.9,67.7 408.6,67.7 409.2,67.7 409.9,67.7 410.6,67.7 411.2,67.7 411.9,43.4 412.5,43.4 413.2,43.4 413.9,59.6 414.5,59.6 415.2,59.6 415.9,51.5 416.5,51.5 417.2,51.5 417.8,67.7 418.5,67.7 419.2,67.7 419.8,67.7 420.5,67.7 421.2,67.7 421.8,67.7 422.5,67.7 423.2,67.7 423.8,67.7 424.5,67.7 425.1,67.7 425.8,67.7 426.5,67.7 427.1,67.7 427.8,67.7 428.5,67.7 429.1,67.7 429.8,67.7 430.4,67.7 431.1,67.7 431.8,67.7 432.4,67.7 433.1,67.7 433.8,67.7 434.4,67.7 435.1,67.7 435.7,67.7 436.4,67.7 437.1,67.7 437.7,43.4 438.4,43.4 439.1,43.4 439.7,59.6 440.4,59.6 441.0,59.6 441.7,51.5 442.4,51.5 443.0,51.5 443.7,67.7 444.4,67.7 445.0,67.7 445.7,108.4 446.3,108.4 447.0,108.4 447.7,140.9 448.3,140.9 449.0,140.9 449.7,140.9 450.3,140.9 451.0,140.9 451.7,116.5 452.3,116.5 453.0,116.5 453.6,75.9 454.3,75.9 455.0,75.9 455.6,51.5 456.3,51.5 457.0,51.5 457.6,67.7 458.3,67.7 458.9,67.7 459.6,67.7 460.3,67.7 460.9,67.7 461.6,75.9 462.3,75.9 462.9,75.9 463.6,75.9 464.2,75.9 464.9,75.9 465.6,67.7 466.2,67.7 466.9,67.7 467.6,67.7 468.2,67.7 468.9,67.7 469.5,67.7 470.2,67.7 470.9,67.7 471.5,67.7 472.2,67.7 472.9,67.7 473.5,67.7 474.2,67.7 474.9,67.7 475.5,67.7 476.2,67.7 476.8,67.7 477.5,67.7 478.2,67.7 478.8,67.7 479.5,67.7 480.2,67.7 480.8,67.7 481.5,67.7 482.1,67.7 482.8,67.7 483.5,67.7 484.1,67.7 484.8,67.7 485.5,67.7 486.1,67.7 486.8,67.7 487.4,67.7 488.1,67.7 488.8,67.7 489.4,67.7 490.1,67.7 490.8,67.7 491.4,67.7 492.1,67.7 492.7,67.7 493.4,67.7 494.1,67.7 494.7,67.7 495.4,59.6 496.1,59.6 496.7,59.6 497.4,51.5 498.1,51.5 498.7,51.5 499.4,51.5 500.0,51.5 500.7,51.5 501.4,59.6 502.0,59.6 502.7,59.6 503.4,67.7 504.0,67.7 504.7,67.7 505.3,43.4 506.0,43.4 506.7,43.4 507.3,59.6 508.0,59.6 508.7,59.6 509.3,51.5 510.0,51.5 510.6,51.5 511.3,67.7 512.0,67.7 512.6,67.7 513.3,67.7 514.0,67.7 514.6,67.7 515.3,67.7 515.9,67.7 516.6,67.7 517.3,67.7 517.9,67.7 518.6,67.7 519.3,59.6 519.9,59.6 520.6,59.6 521.2,51.5 521.9,51.5 522.6,51.5 523.2,51.5 523.9,51.5 524.6,51.5 525.2,59.6 525.9,59.6 526.6,59.6 527.2,67.7 527.9,67.7 528.5,67.7 529.2,43.4 529.9,43.4 530.5,43.4 531.2,59.6 531.9,59.6 532.5,59.6 533.2,59.6 533.8,59.6 534.5,59.6 535.2,108.4 535.8,108.4 536.5,108.4 537.2,92.1 537.8,92.1 538.5,92.1 539.1,116.5 539.8,116.5 540.5,116.5 541.1,67.7 541.8,67.7 542.5,67.7 543.1,67.7 543.8,67.7 544.4,67.7 545.1,51.5 545.8,51.5 546.4,51.5 547.1,59.6 547.8,59.6 548.4,59.6 549.1,43.4 549.8,43.4 550.4,43.4 551.1,43.4 551.7,43.4 552.4,43.4 553.1,43.4 553.7,43.4 554.4,43.4 555.1,43.4 555.7,43.4 556.4,43.4 557.0,43.4 557.7,43.4 558.4,43.4 559.0,59.6 559.7,59.6 560.4,59.6 561.0,43.4 561.7,43.4 562.3,43.4 563.0,43.4 563.7,43.4 564.3,43.4 565.0,59.6 565.7,59.6 566.3,59.6 567.0,43.4 567.6,43.4 568.3,43.4 569.0,59.6 569.6,59.6 570.3,59.6 571.0,51.5 571.6,51.5 572.3,51.5 573.0,43.4 573.6,43.4 574.3,43.4 574.9,67.7 575.6,67.7 576.3,67.7 576.9,43.4 577.6,43.4 578.3,43.4 578.9,43.4 579.6,43.4 580.2,43.4 580.9,43.4 581.6,43.4 582.2,43.4 582.9,43.4 583.6,43.4 584.2,43.4 584.9,43.4 585.5,43.4 586.2,43.4 586.9,59.6 587.5,59.6 588.2,59.6 588.9,43.4 589.5,43.4 590.2,43.4 590.8,43.4 591.5,43.4 592.2,43.4 592.8,43.4 593.5,43.4 594.2,43.4 594.8,43.4 595.5,43.4 596.1,43.4 596.8,43.4 597.5,43.4 598.1,43.4 598.8,59.6 599.5,59.6 600.1,59.6 600.8,43.4 601.5,43.4 602.1,43.4 602.8,43.4 603.4,43.4 604.1,43.4 604.8,27.1 605.4,27.1 606.1,27.1 606.8,35.2 607.4,35.2 608.1,35.2 608.7,43.4 609.4,43.4 610.1,43.4 610.7,43.4 611.4,43.4 612.1,43.4 612.7,43.4 613.4,43.4 614.0,43.4 614.7,43.4 615.4,43.4 616.0,43.4 616.7,43.4 617.4,43.4 618.0,43.4 618.7,59.6 619.3,59.6 620.0,59.6 620.7,67.7 621.3,67.7 622.0,67.7 622,150" fill="url(#cadence-fill)" />
  <polyline points="46.0,116.5 46.7,116.5 47.3,116.5 48.0,100.3 48.7,100.3 49.3,100.3 50.0,84.0 50.6,84.0 51.3,84.0 52.0,67.7 52.6,67.7 53.3,67.7 54.0,67.7 54.6,67.7 55.3,67.7 55.9,92.1 56.6,92.1 57.3,92.1 57.9,92.1 58.6,92.1 59.3,92.1 59.9,92.1 60.6,92.1 61.2,92.1 61.9,92.1 62.6,92.1 63.2,92.1 63.9,67.7 64.6,67.7 65.2,67.7 65.9,92.1 66.5,92.1 67.2,92.1 67.9,67.7 68.5,67.7 69.2,67.7 69.9,67.7 70.5,67.7 71.2,67.7 71.9,67.7 72.5,67.7 73.2,67.7 73.8,67.7 74.5,67.7 75.2,67.7 75.8,67.7 76.5,67.7 77.2,67.7 77.8,92.1 78.5,92.1 79.1,92.1 79.8,75.9 80.5,75.9 81.1,75.9 81.8,92.1 82.5,92.1 83.1,92.1 83.8,75.9 84.4,75.9 85.1,75.9 85.8,84.0 86.4,84.0 87.1,84.0 87.8,92.1 88.4,92.1 89.1,92.1 89.7,67.7 90.4,67.7 91.1,67.7 91.7,84.0 92.4,84.0 93.1,84.0 93.7,67.7 94.4,67.7 95.0,67.7 95.7,84.0 96.4,84.0 97.0,84.0 97.7,75.9 98.4,75.9 99.0,75.9 99.7,92.1 100.4,92.1 101.0,92.1 101.7,92.1 102.3,92.1 103.0,92.1 103.7,75.9 104.3,75.9 105.0,75.9 105.7,75.9 106.3,75.9 107.0,75.9 107.6,67.7 108.3,67.7 109.0,67.7 109.6,84.0 110.3,84.0 111.0,84.0 111.6,67.7 112.3,67.7 112.9,67.7 113.6,84.0 114.3,84.0 114.9,84.0 115.6,67.7 116.3,67.7 116.9,67.7 117.6,75.9 118.2,75.9 118.9,75.9 119.6,75.9 120.2,75.9 120.9,75.9 121.6,84.0 122.2,84.0 122.9,84.0 123.6,92.1 124.2,92.1 124.9,92.1 125.5,92.1 126.2,92.1 126.9,92.1 127.5,84.0 128.2,84.0 128.9,84.0 129.5,84.0 130.2,84.0 130.8,84.0 131.5,67.7 132.2,67.7 132.8,67.7 133.5,75.9 134.2,75.9 134.8,75.9 135.5,92.1 136.1,92.1 136.8,92.1 137.5,75.9 138.1,75.9 138.8,75.9 139.5,92.1 140.1,92.1 140.8,92.1 141.4,75.9 142.1,75.9 142.8,75.9 143.4,84.0 144.1,84.0 144.8,84.0 145.4,92.1 146.1,92.1 146.8,92.1 147.4,67.7 148.1,67.7 148.7,67.7 149.4,92.1 150.1,92.1 150.7,92.1 151.4,75.9 152.1,75.9 152.7,75.9 153.4,84.0 154.0,84.0 154.7,84.0 155.4,92.1 156.0,92.1 156.7,92.1 157.4,67.7 158.0,67.7 158.7,67.7 159.3,84.0 160.0,84.0 160.7,84.0 161.3,67.7 162.0,67.7 162.7,67.7 163.3,75.9 164.0,75.9 164.6,75.9 165.3,75.9 166.0,75.9 166.6,75.9 167.3,84.0 168.0,84.0 168.6,84.0 169.3,67.7 169.9,67.7 170.6,67.7 171.3,67.7 171.9,67.7 172.6,67.7 173.3,84.0 173.9,84.0 174.6,84.0 175.3,75.9 175.9,75.9 176.6,75.9 177.2,75.9 177.9,75.9 178.6,75.9 179.2,67.7 179.9,67.7 180.6,67.7 181.2,67.7 181.9,67.7 182.5,67.7 183.2,92.1 183.9,92.1 184.5,92.1 185.2,92.1 185.9,92.1 186.5,92.1 187.2,100.3 187.8,100.3 188.5,100.3 189.2,75.9 189.8,75.9 190.5,75.9 191.2,92.1 191.8,92.1 192.5,92.1 193.1,67.7 193.8,67.7 194.5,67.7 195.1,67.7 195.8,67.7 196.5,67.7 197.1,67.7 197.8,67.7 198.5,67.7 199.1,84.0 199.8,84.0 200.4,84.0 201.1,75.9 201.8,75.9 202.4,75.9 203.1,92.1 203.8,92.1 204.4,92.1 205.1,67.7 205.7,67.7 206.4,67.7 207.1,67.7 207.7,67.7 208.4,67.7 209.1,67.7 209.7,67.7 210.4,67.7 211.0,67.7 211.7,67.7 212.4,67.7 213.0,67.7 213.7,67.7 214.4,67.7 215.0,67.7 215.7,67.7 216.3,67.7 217.0,67.7 217.7,67.7 218.3,67.7 219.0,67.7 219.7,67.7 220.3,67.7 221.0,67.7 221.7,67.7 222.3,67.7 223.0,67.7 223.6,67.7 224.3,67.7 225.0,67.7 225.6,67.7 226.3,67.7 227.0,67.7 227.6,67.7 228.3,67.7 228.9,67.7 229.6,67.7 230.3,67.7 230.9,67.7 231.6,67.7 232.3,67.7 232.9,67.7 233.6,67.7 234.2,67.7 234.9,67.7 235.6,67.7 236.2,67.7 236.9,67.7 237.6,67.7 238.2,67.7 238.9,67.7 239.5,67.7 240.2,67.7 240.9,67.7 241.5,67.7 242.2,67.7 242.9,84.0 243.5,84.0 244.2,84.0 244.8,75.9 245.5,75.9 246.2,75.9 246.8,75.9 247.5,75.9 248.2,75.9 248.8,67.7 249.5,67.7 250.2,67.7 250.8,67.7 251.5,67.7 252.1,67.7 252.8,67.7 253.5,67.7 254.1,67.7 254.8,67.7 255.5,67.7 256.1,67.7 256.8,67.7 257.4,67.7 258.1,67.7 258.8,67.7 259.4,67.7 260.1,67.7 260.8,67.7 261.4,67.7 262.1,67.7 262.7,67.7 263.4,67.7 264.1,67.7 264.7,67.7 265.4,67.7 266.1,67.7 266.7,67.7 267.4,67.7 268.0,67.7 268.7,67.7 269.4,67.7 270.0,67.7 270.7,67.7 271.4,67.7 272.0,67.7 272.7,67.7 273.4,67.7 274.0,67.7 274.7,59.6 275.3,59.6 276.0,59.6 276.7,51.5 277.3,51.5 278.0,51.5 278.7,51.5 279.3,51.5 280.0,51.5 280.6,59.6 281.3,59.6 282.0,59.6 282.6,67.7 283.3,67.7 284.0,67.7 284.6,67.7 285.3,67.7 285.9,67.7 286.6,67.7 287.3,67.7 287.9,67.7 288.6,75.9 289.3,75.9 289.9,75.9 290.6,75.9 291.2,75.9 291.9,75.9 292.6,84.0 293.2,84.0 293.9,84.0 294.6,67.7 295.2,67.7 295.9,67.7 296.6,67.7 297.2,67.7 297.9,67.7 298.5,67.7 299.2,67.7 299.9,67.7 300.5,75.9 301.2,75.9 301.9,75.9 302.5,75.9 303.2,75.9 303.8,75.9 304.5,84.0 305.2,84.0 305.8,84.0 306.5,67.7 307.2,67.7 307.8,67.7 308.5,67.7 309.1,67.7 309.8,67.7 310.5,67.7 311.1,67.7 311.8,67.7 312.5,67.7 313.1,67.7 313.8,67.7 314.4,67.7 315.1,67.7 315.8,67.7 316.4,67.7 317.1,67.7 317.8,67.7 318.4,67.7 319.1,67.7 319.7,67.7 320.4,67.7 321.1,67.7 321.7,67.7 322.4,67.7 323.1,67.7 323.7,67.7 324.4,67.7 325.1,67.7 325.7,67.7 326.4,84.0 327.0,84.0 327.7,84.0 328.4,75.9 329.0,75.9 329.7,75.9 330.4,67.7 331.0,67.7 331.7,67.7 332.3,67.7 333.0,67.7 333.7,67.7 334.3,51.5 335.0,51.5 335.7,51.5 336.3,75.9 337.6,75.9 338.3,75.9 339.0,75.9 339.6,75.9 340.3,84.0 341.0,84.0 341.6,84.0 342.3,67.7 342.9,67.7 343.6,67.7 344.3,67.7 344.9,67.7 345.6,67.7 346.3,67.7 346.9,67.7 347.6,67.7 348.3,67.7 348.9,67.7 349.6,67.7 350.2,67.7 350.9,67.7 351.6,67.7 352.2,67.7 352.9,67.7 353.6,67.7 354.2,67.7 354.9,67.7 355.5,67.7 356.2,67.7 356.9,67.7 357.5,67.7 358.2,67.7 358.9,67.7 359.5,67.7 360.2,67.7 360.8,67.7 361.5,67.7 362.2,67.7 362.8,67.7 363.5,67.7 364.2,67.7 364.8,67.7 365.5,67.7 366.1,67.7 366.8,67.7 367.5,67.7 368.1,67.7 368.8,67.7 369.5,67.7 370.1,67.7 370.8,67.7 371.4,67.7 372.1,67.7 372.8,67.7 373.4,67.7 374.1,67.7 374.8,67.7 375.4,67.7 376.1,67.7 376.8,67.7 377.4,67.7 378.1,67.7 378.7,67.7 379.4,67.7 380.1,67.7 380.7,67.7 381.4,67.7 382.1,67.7 382.7,67.7 383.4,67.7 384.0,67.7 384.7,67.7 385.4,67.7 386.0,67.7 386.7,67.7 387.4,67.7 388.0,67.7 388.7,67.7 389.3,67.7 390.0,67.7 390.7,67.7 391.3,67.7 392.0,67.7 392.7,67.7 393.3,67.7 394.0,67.7 394.6,67.7 395.3,67.7 396.0,67.7 396.6,67.7 397.3,67.7 398.0,67.7 398.6,67.7 399.3,67.7 400.0,67.7 400.6,67.7 401.3,67.7 401.9,67.7 402.6,67.7 403.3,67.7 403.9,67.7 404.6,67.7 405.3,67.7 405.9,67.7 406.6,67.7 407.2,67.7 407.9,67.7 408.6,67.7 409.2,67.7 409.9,67.7 410.6,67.7 411.2,67.7 411.9,43.4 412.5,43.4 413.2,43.4 413.9,59.6 414.5,59.6 415.2,59.6 415.9,51.5 416.5,51.5 417.2,51.5 417.8,67.7 418.5,67.7 419.2,67.7 419.8,67.7 420.5,67.7 421.2,67.7 421.8,67.7 422.5,67.7 423.2,67.7 423.8,67.7 424.5,67.7 425.1,67.7 425.8,67.7 426.5,67.7 427.1,67.7 427.8,67.7 428.5,67.7 429.1,67.7 429.8,67.7 430.4,67.7 431.1,67.7 431.8,67.7 432.4,67.7 433.1,67.7 433.8,67.7 434.4,67.7 435.1,67.7 435.7,67.7 436.4,67.7 437.1,67.7 437.7,43.4 438.4,43.4 439.1,43.4 439.7,59.6 440.4,59.6 441.0,59.6 441.7,51.5 442.4,51.5 443.0,51.5 443.7,67.7 444.4,67.7 445.0,67.7 445.7,108.4 446.3,108.4 447.0,108.4 447.7,140.9 448.3,140.9 449.0,140.9 449.7,140.9 450.3,140.9 451.0,140.9 451.7,116.5 452.3,116.5 453.0,116.5 453.6,75.9 454.3,75.9 455.0,75.9 455.6,51.5 456.3,51.5 457.0,51.5 457.6,67.7 458.3,67.7 458.9,67.7 459.6,67.7 460.3,67.7 460.9,67.7 461.6,75.9 462.3,75.9 462.9,75.9 463.6,75.9 464.2,75.9 464.9,75.9 465.6,67.7 466.2,67.7 466.9,67.7 467.6,67.7 468.2,67.7 468.9,67.7 469.5,67.7 470.2,67.7 470.9,67.7 471.5,67.7 472.2,67.7 472.9,67.7 473.5,67.7 474.2,67.7 474.9,67.7 475.5,67.7 476.2,67.7 476.8,67.7 477.5,67.7 478.2,67.7 478.8,67.7 479.5,67.7 480.2,67.7 480.8,67.7 481.5,67.7 482.1,67.7 482.8,67.7 483.5,67.7 484.1,67.7 484.8,67.7 485.5,67.7 486.1,67.7 486.8,67.7 487.4,67.7 488.1,67.7 488.8,67.7 489.4,67.7 490.1,67.7 490.8,67.7 491.4,67.7 492.1,67.7 492.7,67.7 493.4,67.7 494.1,67.7 494.7,67.7 495.4,59.6 496.1,59.6 496.7,59.6 497.4,51.5 498.1,51.5 498.7,51.5 499.4,51.5 500.0,51.5 500.7,51.5 501.4,59.6 502.0,59.6 502.7,59.6 503.4,67.7 504.0,67.7 504.7,67.7 505.3,43.4 506.0,43.4 506.7,43.4 507.3,59.6 508.0,59.6 508.7,59.6 509.3,51.5 510.0,51.5 510.6,51.5 511.3,67.7 512.0,67.7 512.6,67.7 513.3,67.7 514.0,67.7 514.6,67.7 515.3,67.7 515.9,67.7 516.6,67.7 517.3,67.7 517.9,67.7 518.6,67.7 519.3,59.6 519.9,59.6 520.6,59.6 521.2,51.5 521.9,51.5 522.6,51.5 523.2,51.5 523.9,51.5 524.6,51.5 525.2,59.6 525.9,59.6 526.6,59.6 527.2,67.7 527.9,67.7 528.5,67.7 529.2,43.4 529.9,43.4 530.5,43.4 531.2,59.6 531.9,59.6 532.5,59.6 533.2,59.6 533.8,59.6 534.5,59.6 535.2,108.4 535.8,108.4 536.5,108.4 537.2,92.1 537.8,92.1 538.5,92.1 539.1,116.5 539.8,116.5 540.5,116.5 541.1,67.7 541.8,67.7 542.5,67.7 543.1,67.7 543.8,67.7 544.4,67.7 545.1,51.5 545.8,51.5 546.4,51.5 547.1,59.6 547.8,59.6 548.4,59.6 549.1,43.4 549.8,43.4 550.4,43.4 551.1,43.4 551.7,43.4 552.4,43.4 553.1,43.4 553.7,43.4 554.4,43.4 555.1,43.4 555.7,43.4 556.4,43.4 557.0,43.4 557.7,43.4 558.4,43.4 559.0,59.6 559.7,59.6 560.4,59.6 561.0,43.4 561.7,43.4 562.3,43.4 563.0,43.4 563.7,43.4 564.3,43.4 565.0,59.6 565.7,59.6 566.3,59.6 567.0,43.4 567.6,43.4 568.3,43.4 569.0,59.6 569.6,59.6 570.3,59.6 571.0,51.5 571.6,51.5 572.3,51.5 573.0,43.4 573.6,43.4 574.3,43.4 574.9,67.7 575.6,67.7 576.3,67.7 576.9,43.4 577.6,43.4 578.3,43.4 578.9,43.4 579.6,43.4 580.2,43.4 580.9,43.4 581.6,43.4 582.2,43.4 582.9,43.4 583.6,43.4 584.2,43.4 584.9,43.4 585.5,43.4 586.2,43.4 586.9,59.6 587.5,59.6 588.2,59.6 588.9,43.4 589.5,43.4 590.2,43.4 590.8,43.4 591.5,43.4 592.2,43.4 592.8,43.4 593.5,43.4 594.2,43.4 594.8,43.4 595.5,43.4 596.1,43.4 596.8,43.4 597.5,43.4 598.1,43.4 598.8,59.6 599.5,59.6 600.1,59.6 600.8,43.4 601.5,43.4 602.1,43.4 602.8,43.4 603.4,43.4 604.1,43.4 604.8,27.1 605.4,27.1 606.1,27.1 606.8,35.2 607.4,35.2 608.1,35.2 608.7,43.4 609.4,43.4 610.1,43.4 610.7,43.4 611.4,43.4 612.1,43.4 612.7,43.4 613.4,43.4 614.0,43.4 614.7,43.4 615.4,43.4 616.0,43.4 616.7,43.4 617.4,43.4 618.0,43.4 618.7,59.6 619.3,59.6 620.0,59.6 620.7,67.7 621.3,67.7 622.0,67.7" fill="none" stroke="#51cf66" stroke-width="3" stroke-linecap="round" stroke-linejoin="round" />
  <text x="46" y="172" fill="#4d5560" font-size="10" font-family="inherit">08:58 AM</text>
  <text x="622" y="172" text-anchor="end" fill="#4d5560" font-size="10" font-family="inherit">09:12 AM</text>
  <text x="622" y="30" text-anchor="end" fill="#4d5560" font-size="11" font-family="inherit">81 spm max</text>
  <text x="622" y="46" text-anchor="end" fill="#4d5560" font-size="11" font-family="inherit">67 spm min</text>
</svg>