<svg xmlns="http://www.w3.org/2000/svg" viewBox="0 0 640 180" role="img" aria-label="Heart Rate chart, max 151 · min 104 bpm" data-range="max 151 · min 104 bpm">
  <defs>
    <linearGradient id="heart-rate-fill" x1="0" x2="0" y1="0" y2="1">
      <stop offset="0%" stop-color="#ff6b6b" stop-opacity="0.28" />
      <stop offset="100%" stop-color="#ff6b6b" stop-opacity="0.02" />
    </linearGradient>
  </defs>
  <rect x="0" y="0" width="640" height="180" rx="6" fill="#fbfbfb" fill-opacity="1" />

  <line x1="46" y1="16.0" x2="624" y2="16.0" stroke="#e5e9ef" stroke-width="1" />
  <text x="38" y="21.0" text-anchor="end" fill="#5a6472" font-size="15" font-family="inherit">155</text>
  <line x1="46" y1="59.3" x2="624" y2="59.3" stroke="#e5e9ef" stroke-width="1" />
  <text x="38" y="64.3" text-anchor="end" fill="#5a6472" font-size="15" font-family="inherit">137</text>
  <line x1="46" y1="102.7" x2="624" y2="102.7" stroke="#e5e9ef" stroke-width="1" />
  <text x="38" y="107.7" text-anchor="end" fill="#5a6472" font-size="15" font-family="inherit">118</text>
  <line x1="46" y1="146.0" x2="624" y2="146.0" stroke="#e5e9ef" stroke-width="1" />
  <text x="38" y="151.0" text-anchor="end" fill="#5a6472" font-size="15" font-family="inherit">100</text>
  <polygon points="46,146 46.0,63.1 49.3,63.1 53.4,65.5 57.5,70.3 61.7,67.9 65.8,65.5 69.9,65.5 74.0,60.7 76.5,60.7 79.0,53.6 83.1,53.6 87.2,53.6 91.3,53.6 95.5,41.7 98.8,44.0 102.1,44.0 103.7,48.8 107.8,51.2 111.1,51.2 112.8,51.2 116.1,51.2 118.6,51.2 121.9,53.6 124.3,48.8 126.8,48.8 129.3,48.8 133.4,48.8 135.9,58.3 140.0,46.4 144.1,56.0 146.6,53.6 149.9,53.6 152.4,60.7 154.8,60.7 159.0,60.7 161.4,56.0 164.7,56.0 169.7,56.0 171.3,53.6 175.5,53.6 179.6,48.8 183.7,53.6 186.2,56.0 188.6,58.3 191.9,56.0 194.4,56.0 198.5,56.0 201.0,56.0 205.1,56.0 209.3,56.0 212.6,63.1 215.9,63.1 220.0,63.1 222.5,58.3 226.6,58.3 230.7,58.3 232.3,60.7 234.8,58.3 238.9,58.3 241.4,56.0 245.5,56.0 249.7,53.6 253.8,53.6 256.3,58.3 260.4,60.7 262.9,58.3 266.2,58.3 268.6,29.7 272.7,29.7 275.2,29.7 276.9,34.5 280.2,44.0 283.5,44.0 287.6,53.6 290.9,60.7 294.2,60.7 298.3,60.7 300.0,53.6 303.3,46.4 306.6,46.4 310.7,46.4 312.3,46.4 314.8,46.4 318.9,46.4 321.4,27.3 324.7,34.5 327.2,34.5 329.6,44.0 332.9,48.8 336.2,48.8 340.4,46.4 344.5,51.2 348.6,56.0 352.7,58.3 356.9,53.6 360.1,53.6 361.8,53.6 365.9,51.2 370.0,51.2 371.7,46.4 375.8,46.4 379.9,51.2 384.9,44.0 389.0,46.4 393.1,46.4 394.8,41.7 397.3,41.7 399.7,41.7 403.8,41.7 407.1,34.5 409.6,34.5 413.7,34.5 416.2,27.3 420.3,27.3 424.5,29.7 426.9,25.0 428.6,27.3 432.7,27.3 437.7,29.7 441.8,25.0 445.9,27.3 448.4,27.3 452.5,27.3 454.1,27.3 458.3,29.7 461.6,32.1 464.9,32.1 469.0,34.5 473.1,34.5 476.4,27.3 479.7,27.3 481.4,39.3 485.5,41.7 490.4,41.7 492.9,36.9 496.2,44.0 498.7,32.1 502.8,32.1 506.9,60.7 511.0,91.7 515.2,106.0 518.5,113.2 521.8,113.2 524.2,113.2 528.4,113.2 532.5,122.7 534.1,125.1 538.2,125.1 540.7,122.7 544.8,120.3 549.0,110.8 553.1,110.8 555.6,82.2 558.9,87.0 560.5,89.3 563.8,89.3 566.3,82.2 570.4,82.2 572.1,79.8 574.5,82.2 578.7,82.2 581.1,89.3 583.6,87.0 585.2,87.0 588.5,96.5 591.0,96.5 596.0,96.5 597.6,91.7 600.9,87.0 604.2,87.0 608.3,122.7 610.8,127.5 614.9,127.5 619.1,134.7 620.7,137.0 624.0,132.3 624,146" fill="url(#heart-rate-fill)" />
  <line x1="46" y1="16" x2="46" y2="146" stroke="#94a0ad" stroke-width="1.5" />
  <line x1="46" y1="146" x2="624" y2="146" stroke="#94a0ad" stroke-width="1.5" />
  <circle cx="46.0" cy="63.1" r="2" fill="#ff6b6b" />
  <circle cx="49.3" cy="63.1" r="2" fill="#ff6b6b" />
  <circle cx="53.4" cy="65.5" r="2" fill="#ff6b6b" />
  <circle cx="57.5" cy="70.3" r="2" fill="#ff6b6b" />
  <circle cx="61.7" cy="67.9" r="2" fill="#ff6b6b" />
  <circle cx="65.8" cy="65.5" r="2" fill="#ff6b6b" />
  <circle cx="69.9" cy="65.5" r="2" fill="#ff6b6b" />
  <circle cx="74.0" cy="60.7" r="2" fill="#ff6b6b" />
  <circle cx="76.5" cy="60.7" r="2" fill="#ff6b6b" />
  <circle cx="79.0" cy="53.6" r="2" fill="#ff6b6b" />
  <circle cx="83.1" cy="53.6" r="2" fill="#ff6b6b" />
  <circle cx="87.2" cy="53.6" r="2" fill="#ff6b6b" />
  <circle cx="91.3" cy="53.6" r="2" fill="#ff6b6b" />
  <circle cx="95.5" cy="41.7" r="2" fill="#ff6b6b" />
  <circle cx="98.8" cy="44.0" r="2" fill="#ff6b6b" />
  <circle cx="102.1" cy="44.0" r="2" fill="#ff6b6b" />
  <circle cx="103.7" cy="48.8" r="2" fill="#ff6b6b" />
  <circle cx="107.8" cy="51.2" r="2" fill="#ff6b6b" />
  <circle cx="111.1" cy="51.2" r="2" fill="#ff6b6b" />
  <circle cx="112.8" cy="51.2" r="2" fill="#ff6b6b" />
  <circle cx="116.1" cy="51.2" r="2" fill="#ff6b6b" />
  <circle cx="118.6" cy="51.2" r="2" fill="#ff6b6b" />
  <circle cx="121.9" cy="53.6" r="2" fill="#ff6b6b" />
  <circle cx="124.3" cy="48.8" r="2" fill="#ff6b6b" />
  <circle cx="126.8" cy="48.8" r="2" fill="#ff6b6b" />
  <circle cx="129.3" cy="48.8" r="2" fill="#ff6b6b" />
  <circle cx="133.4" cy="48.8" r="2" fill="#ff6b6b" />
  <circle cx="135.9" cy="58.3" r="2" fill="#ff6b6b" />
  <circle cx="140.0" cy="46.4" r="2" fill="#ff6b6b" />
  <circle cx="144.1" cy="56.0" r="2" fill="#ff6b6b" />
  <circle cx="146.6" cy="53.6" r="2" fill="#ff6b6b" />
  <circle cx="149.9" cy="53.6" r="2" fill="#ff6b6b" />
  <circle cx="152.4" cy="60.7" r="2" fill="#ff6b6b" />
  <circle cx="154.8" cy="60.7" r="2" fill="#ff6b6b" />
  <circle cx="159.0" cy="60.7" r="2" fill="#ff6b6b" />
  <circle cx="161.4" cy="56.0" r="2" fill="#ff6b6b" />
  <circle cx="164.7" cy="56.0" r="2" fill="#ff6b6b" />
  <circle cx="169.7" cy="56.0" r="2" fill="#ff6b6b" />
  <circle cx="171.3" cy="53.6" r="2" fill="#ff6b6b" />
  <circle cx="175.5" cy="53.6" r="2" fill="#ff6b6b" />
  <circle cx="179.6" cy="48.8" r="2" fill="#ff6b6b" />
  <circle cx="183.7" cy="53.6" r="2" fill="#ff6b6b" />
  <circle cx="186.2" cy="56.0" r="2" fill="#ff6b6b" />
  <circle cx="188.6" cy="58.3" r="2" fill="#ff6b6b" />
  <circle cx="191.9" cy="56.0" r="2" fill="#ff6b6b" />
  <circle cx="194.4" cy="56.0" r="2" fill="#ff6b6b" />
  <circle cx="198.5" cy="56.0" r="2" fill="#ff6b6b" />
  <circle cx="201.0" cy="56.0" r="2" fill="#ff6b6b" />
  <circle cx="205.1" cy="56.0" r="2" fill="#ff6b6b" />
  <circle cx="209.3" cy="56.0" r="2" fill="#ff6b6b" />
  <circle cx="212.6" cy="63.1" r="2" fill="#ff6b6b" />
  <circle cx="215.9" cy="63.1" r="2" fill="#ff6b6b" />
  <circle cx="220.0" cy="63.1" r="2" fill="#ff6b6b" />
  <circle cx="222.5" cy="58.3" r="2" fill="#ff6b6b" />
  <circle cx="226.6" cy="58.3" r="2" fill="#ff6b6b" />
  <circle cx="230.7" cy="58.3" r="2" fill="#ff6b6b" />
  <circle cx="232.3" cy="60.7" r="2" fill="#ff6b6b" />
  <circle cx="234.8" cy="58.3" r="2" fill="#ff6b6b" />
  <circle cx="238.9" cy="58.3" r="2" fill="#ff6b6b" />
  <circle cx="241.4" cy="56.0" r="2" fill="#ff6b6b" />
  <circle cx="245.5" cy="56.0" r="2" fill="#ff6b6b" />
  <circle cx="249.7" cy="53.6" r="2" fill="#ff6b6b" />
  <circle cx="253.8" cy="53.6" r="2" fill="#ff6b6b" />
  <circle cx="256.3" cy="58.3" r="2" fill="#ff6b6b" />
  <circle cx="260.4" cy="60.7" r="2" fill="#ff6b6b" />
  <circle cx="262.9" cy="58.3" r="2" fill="#ff6b6b" />
  <circle cx="266.2" cy="58.3" r="2" fill="#ff6b6b" />
  <circle cx="268.6" cy="29.7" r="2" fill="#ff6b6b" />
  <circle cx="272.7" cy="29.7" r="2" fill="#ff6b6b" />
  <circle cx="275.2" cy="29.7" r="2" fill="#ff6b6b" />
  <circle cx="276.9" cy="34.5" r="2" fill="#ff6b6b" />
  <circle cx="280.2" cy="44.0" r="2" fill="#ff6b6b" />
  <circle cx="283.5" cy="44.0" r="2" fill="#ff6b6b" />
  <circle cx="287.6" cy="53.6" r="2" fill="#ff6b6b" />
  <circle cx="290.9" cy="60.7" r="2" fill="#ff6b6b" />
  <circle cx="294.2" cy="60.7" r="2" fill="#ff6b6b" />
  <circle cx="298.3" cy="60.7" r="2" fill="#ff6b6b" />
  <circle cx="300.0" cy="53.6" r="2" fill="#ff6b6b" />
  <circle cx="303.3" cy="46.4" r="2" fill="#ff6b6b" />
  <circle cx="306.6" cy="46.4" r="2" fill="#ff6b6b" />
  <circle cx="310.7" cy="46.4" r="2" fill="#ff6b6b" />
  <circle cx="312.3" cy="46.4" r="2" fill="#ff6b6b" />
  <circle cx="314.8" cy="46.4" r="2" fill="#ff6b6b" />
  <circle cx="318.9" cy="46.4" r="2" fill="#ff6b6b" />
  <circle cx="321.4" cy="27.3" r="2" fill="#ff6b6b" />
  <circle cx="324.7" cy="34.5" r="2" fill="#ff6b6b" />
  <circle cx="327.2" cy="34.5" r="2" fill="#ff6b6b" />
  <circle cx="329.6" cy="44.0" r="2" fill="#ff6b6b" />
  <circle cx="332.9" cy="48.8" r="2" fill="#ff6b6b" />
  <circle cx="336.2" cy="48.8" r="2" fill="#ff6b6b" />
  <circle cx="340.4" cy="46.4" r="2" fill="#ff6b6b" />
  <circle cx="344.5" cy="51.2" r="2" fill="#ff6b6b" />
  <circle cx="348.6" cy="56.0" r="2" fill="#ff6b6b" />
  <circle cx="352.7" cy="58.3" r="2" fill="#ff6b6b" />
  <circle cx="356.9" cy="53.6" r="2" fill="#ff6b6b" />
  <circle cx="360.1" cy="53.6" r="2" fill="#ff6b6b" />
  <circle cx="361.8" cy="53.6" r="2" fill="#ff6b6b" />
  <circle cx="365.9" cy="51.2" r="2" fill="#ff6b6b" />
  <circle cx="370.0" cy="51.2" r="2" fill="#ff6b6b" />
  <circle cx="371.7" cy="46.4" r="2" fill="#ff6b6b" />
  <circle cx="375.8" cy="46.4" r="2" fill="#ff6b6b" />
  <circle cx="379.9" cy="51.2" r="2" fill="#ff6b6b" />
  <circle cx="384.9" cy="44.0" r="2" fill="#ff6b6b" />
  <circle cx="389.0" cy="46.4" r="2" fill="#ff6b6b" />
  <circle cx="393.1" cy="46.4" r="2" fill="#ff6b6b" />
  <circle cx="394.8" cy="41.7" r="2" fill="#ff6b6b" />
  <circle cx="397.3" cy="41.7" r="2" fill="#ff6b6b" />
  <circle cx="399.7" cy="41.7" r="2" fill="#ff6b6b" />
  <circle cx="403.8" cy="41.7" r="2" fill="#ff6b6b" />
  <circle cx="407.1" cy="34.5" r="2" fill="#ff6b6b" />
  <circle cx="409.6" cy="34.5" r="2" fill="#ff6b6b" />
  <circle cx="413.7" cy="34.5" r="2" fill="#ff6b6b" />
  <circle cx="416.2" cy="27.3" r="2" fill="#ff6b6b" />
  <circle cx="420.3" cy="27.3" r="2" fill="#ff6b6b" />
  <circle cx="424.5" cy="29.7" r="2" fill="#ff6b6b" />
  <circle cx="426.9" cy="25.0" r="2" fill="#ff6b6b" />
  <circle cx="428.6" cy="27.3" r="2" fill="#ff6b6b" />
  <circle cx="432.7" cy="27.3" r="2" fill="#ff6b6b" />
  <circle cx="437.7" cy="29.7" r="2" fill="#ff6b6b" />
  <circle cx="441.8" cy="25.0" r="2" fill="#ff6b6b" />
  <circle cx="445.9" cy="27.3" r="2" fill="#ff6b6b" />
  <circle cx="448.4" cy="27.3" r="2" fill="#ff6b6b" />
  <circle cx="452.5" cy="27.3" r="2" fill="#ff6b6b" />
  <circle cx="454.1" cy="27.3" r="2" fill="#ff6b6b" />
  <circle cx="458.3" cy="29.7" r="2" fill="#ff6b6b" />
  <circle cx="461.6" cy="32.1" r="2" fill="#ff6b6b" />
  <circle cx="464.9" cy="32.1" r="2" fill="#ff6b6b" />
  <circle cx="469.0" cy="34.5" r="2" fill="#ff6b6b" />
  <circle cx="473.1" cy="34.5" r="2" fill="#ff6b6b" />
  <circle cx="476.4" cy="27.3" r="2" fill="#ff6b6b" />
  <circle cx="479.7" cy="27.3" r="2" fill="#ff6b6b" />
  <circle cx="481.4" cy="39.3" r="2" fill="#ff6b6b" />
  <circle cx="485.5" cy="41.7" r="2" fill="#ff6b6b" />
  <circle cx="490.4" cy="41.7" r="2" fill="#ff6b6b" />
  <circle cx="492.9" cy="36.9" r="2" fill="#ff6b6b" />
  <circle cx="496.2" cy="44.0" r="2" fill="#ff6b6b" />
  <circle cx="498.7" cy="32.1" r="2" fill="#ff6b6b" />
  <circle cx="502.8" cy="32.1" r="2" fill="#ff6b6b" />
  <circle cx="506.9" cy="60.7" r="2" fill="#ff6b6b" />
  <circle cx="511.0" cy="91.7" r="2" fill="#ff6b6b" />
  <circle cx="515.2" cy="106.0" r="2" fill="#ff6b6b" />
  <circle cx="518.5" cy="113.2" r="2" fill="#ff6b6b" />
  <circle cx="521.8" cy="113.2" r="2" fill="#ff6b6b" />
  <circle cx="524.2" cy="113.2" r="2" fill="#ff6b6b" />
  <circle cx="528.4" cy="113.2" r="2" fill="#ff6b6b" />
  <circle cx="532.5" cy="122.7" r="2" fill="#ff6b6b" />
  <circle cx="534.1" cy="125.1" r="2" fill="#ff6b6b" />
  <circle cx="538.2" cy="125.1" r="2" fill="#ff6b6b" />
  <circle cx="540.7" cy="122.7" r="2" fill="#ff6b6b" />
  <circle cx="544.8" cy="120.3" r="2" fill="#ff6b6b" />
  <circle cx="549.0" cy="110.8" r="2" fill="#ff6b6b" />
  <circle cx="553.1" cy="110.8" r="2" fill="#ff6b6b" />
  <circle cx="555.6" cy="82.2" r="2" fill="#ff6b6b" />
  <circle cx="558.9" cy="87.0" r="2" fill="#ff6b6b" />
  <circle cx="560.5" cy="89.3" r="2" fill="#ff6b6b" />
  <circle cx="563.8" cy="89.3" r="2" fill="#ff6b6b" />
  <circle cx="566.3" cy="82.2" r="2" fill="#ff6b6b" />
  <circle cx="570.4" cy="82.2" r="2" fill="#ff6b6b" />
  <circle cx="572.1" cy="79.8" r="2" fill="#ff6b6b" />
  <circle cx="574.5" cy="82.2" r="2" fill="#ff6b6b" />
  <circle cx="578.7" cy="82.2" r="2" fill="#ff6b6b" />
  <circle cx="581.1" cy="89.3" r="2" fill="#ff6b6b" />
  <circle cx="583.6" cy="87.0" r="2" fill="#ff6b6b" />
  <circle cx="585.2" cy="87.0" r="2" fill="#ff6b6b" />
  <circle cx="588.5" cy="96.5" r="2" fill="#ff6b6b" />
  <circle cx="591.0" cy="96.5" r="2" fill="#ff6b6b" />
  <circle cx="596.0" cy="96.5" r="2" fill="#ff6b6b" />
  <circle cx="597.6" cy="91.7" r="2" fill="#ff6b6b" />
  <circle cx="600.9" cy="87.0" r="2" fill="#ff6b6b" />
  <circle cx="604.2" cy="87.0" r="2" fill="#ff6b6b" />
  <circle cx="608.3" cy="122.7" r="2" fill="#ff6b6b" />
  <circle cx="610.8" cy="127.5" r="2" fill="#ff6b6b" />
  <circle cx="614.9" cy="127.5" r="2" fill="#ff6b6b" />
  <circle cx="619.1" cy="134.7" r="2" fill="#ff6b6b" />
  <circle cx="620.7" cy="137.0" r="2" fill="#ff6b6b" />
  <circle cx="624.0" cy="132.3" r="2" fill="#ff6b6b" />
  <text x="46" y="170" fill="#5a6472" font-size="15" font-family="inherit">11:41 AM</text>
  <text x="624" y="170" text-anchor="end" fill="#5a6472" font-size="15" font-family="inherit">11:53 AM</text>
</svg>